<?xml version="1.0" encoding="UTF-8" standalone="no"?>
<svg
   xmlns:dc="http://purl.org/dc/elements/1.1/"
   xmlns:cc="http://creativecommons.org/ns#"
   xmlns:rdf="http://www.w3.org/1999/02/22-rdf-syntax-ns#"
   xmlns:svg="http://www.w3.org/2000/svg"
   xmlns="http://www.w3.org/2000/svg"
   xmlns:sodipodi="http://sodipodi.sourceforge.net/DTD/sodipodi-0.dtd"
   xmlns:inkscape="http://www.inkscape.org/namespaces/inkscape"
   width="60mm"
   height="60mm"
   viewBox="0 0 60 60"
   version="1.1"
   id="svg8"
   sodipodi:docname="astronauta_icone.svg"
   inkscape:version="0.92.5 (2060ec1f9f, 2020-04-08)">
  <defs
     id="defs2">
    <inkscape:path-effect
       effect="fillet_chamfer"
       id="path-effect1094"
       is_visible="true"
       lpeversion="1"
       satellites_param="F,0,0,1,0,0,0,1 @ F,0,0,1,0,0,0,1 @ F,0,0,1,0,0,0,1 @ F,0,0,1,0,0,0,1 @ F,0,0,1,0,0,0,1 @ F,0,0,1,0,0,0,1 @ F,0,0,1,0,31.637062,0,1 @ F,0,0,1,0,0,0,1 @ F,0,0,1,0,0,0,1"
       unit="px"
       method="auto"
       mode="F"
       radius="0"
       chamfer_steps="1"
       flexible="false"
       use_knot_distance="true"
       apply_no_radius="true"
       apply_with_radius="true"
       only_selected="false"
       hide_knots="false" />
    <inkscape:path-effect
       effect="fillet_chamfer"
       id="path-effect1075"
       is_visible="true"
       lpeversion="1"
       satellites_param="F,0,0,1,0,0,0,1 @ F,0,0,1,0,0,0,1 @ F,0,0,1,0,0,0,1 @ F,0,0,1,0,0,0,1 @ F,0,0,1,0,0,0,1 @ F,0,0,1,0,0,0,1 @ F,0,0,1,0,31.637062,0,1 @ F,0,0,1,0,0,0,1 @ F,0,0,1,0,0,0,1"
       unit="px"
       method="auto"
       mode="F"
       radius="0"
       chamfer_steps="1"
       flexible="false"
       use_knot_distance="true"
       apply_no_radius="true"
       apply_with_radius="true"
       only_selected="false"
       hide_knots="false" />
    <inkscape:path-effect
       effect="fillet_chamfer"
       id="path-effect1073"
       is_visible="true"
       lpeversion="1"
       satellites_param="F,0,0,1,0,0,0,1 @ F,0,0,1,0,0,0,1 @ F,0,0,1,0,21.130186,0,1 @ F,0,1,1,0,21.130186,0,1 @ F,0,0,1,0,0,0,1 @ F,0,0,1,0,0,0,1 @ F,0,0,1,0,0,0,1"
       unit="px"
       method="auto"
       mode="F"
       radius="0"
       chamfer_steps="1"
       flexible="false"
       use_knot_distance="true"
       apply_no_radius="true"
       apply_with_radius="true"
       only_selected="false"
       hide_knots="false" />
    <inkscape:path-effect
       effect="fillet_chamfer"
       id="path-effect407"
       is_visible="true"
       lpeversion="1"
       satellites_param="F,0,0,1,0,0,0,1 @ F,0,0,1,0,0,0,1 @ F,0,0,1,0,0,0,1 @ F,0,0,1,0,0,0,1 @ F,0,0,1,0,18.511007,0,1 @ F,0,0,1,0,0,0,1"
       unit="px"
       method="auto"
       mode="F"
       radius="0"
       chamfer_steps="1"
       flexible="false"
       use_knot_distance="true"
       apply_no_radius="true"
       apply_with_radius="true"
       only_selected="false"
       hide_knots="false" />
    <inkscape:path-effect
       effect="fillet_chamfer"
       id="path-effect366"
       is_visible="true"
       lpeversion="1"
       satellites_param="F,0,0,1,0,0,0,1 @ F,0,0,1,0,0,0,1 @ F,0,0,1,0,0,0,1 @ F,0,0,1,0,0,0,1 @ F,0,0,1,0,15.592284,0,1 @ F,0,0,1,0,0,0,1"
       unit="px"
       method="auto"
       mode="F"
       radius="0"
       chamfer_steps="1"
       flexible="false"
       use_knot_distance="true"
       apply_no_radius="true"
       apply_with_radius="true"
       only_selected="false"
       hide_knots="false" />
    <inkscape:path-effect
       effect="fillet_chamfer"
       id="path-effect205"
       is_visible="true"
       lpeversion="1"
       satellites_param="F,0,0,1,0,0,0,1 @ F,0,0,1,0,0,0,1 @ F,0,0,1,0,0,0,1 @ F,0,0,1,0,0,0,1 @ F,0,0,1,0,16.751524,0,1 @ F,0,0,1,0,0,0,1"
       unit="px"
       method="auto"
       mode="F"
       radius="0"
       chamfer_steps="1"
       flexible="false"
       use_knot_distance="true"
       apply_no_radius="true"
       apply_with_radius="true"
       only_selected="false"
       hide_knots="false" />
    <inkscape:path-effect
       effect="fillet_chamfer"
       id="path-effect185"
       is_visible="true"
       lpeversion="1"
       satellites_param="F,0,0,1,0,0,0,1 @ F,0,0,1,0,30.984869,0,1 @ F,0,0,1,0,0,0,1"
       unit="px"
       method="auto"
       mode="F"
       radius="0"
       chamfer_steps="1"
       flexible="false"
       use_knot_distance="true"
       apply_no_radius="true"
       apply_with_radius="true"
       only_selected="false"
       hide_knots="false" />
    <inkscape:path-effect
       effect="fillet_chamfer"
       id="path-effect138"
       is_visible="true"
       lpeversion="1"
       satellites_param="F,0,0,1,0,0,0,1 @ F,0,0,1,0,15.232599,0,1 @ F,0,0,1,0,0,0,1"
       unit="px"
       method="auto"
       mode="F"
       radius="0"
       chamfer_steps="1"
       flexible="false"
       use_knot_distance="true"
       apply_no_radius="true"
       apply_with_radius="true"
       only_selected="false"
       hide_knots="false" />
    <inkscape:path-effect
       effect="fillet_chamfer"
       id="path-effect83"
       is_visible="true"
       lpeversion="1"
       satellites_param="F,0,0,1,0,0,0,1 @ F,0,0,1,0,15.232599,0,1 @ F,0,0,1,0,0,0,1"
       unit="px"
       method="auto"
       mode="F"
       radius="0"
       chamfer_steps="1"
       flexible="false"
       use_knot_distance="true"
       apply_no_radius="true"
       apply_with_radius="true"
       only_selected="false"
       hide_knots="false" />
    <inkscape:path-effect
       effect="fillet_chamfer"
       id="path-effect58"
       is_visible="true"
       lpeversion="1"
       satellites_param="F,0,0,1,0,0,0,1 @ F,0,0,1,0,7.5360455,0,1 @ F,0,0,1,0,0,0,1"
       unit="px"
       method="auto"
       mode="F"
       radius="0"
       chamfer_steps="1"
       flexible="false"
       use_knot_distance="true"
       apply_no_radius="true"
       apply_with_radius="true"
       only_selected="false"
       hide_knots="false" />
    <inkscape:path-effect
       effect="fillet_chamfer"
       id="path-effect2362"
       is_visible="true"
       lpeversion="1"
       satellites_param="F,0,0,1,0,0,0,1 @ F,0,0,1,0,7.9986337,0,1 @ F,0,0,1,0,0,0,1"
       unit="px"
       method="auto"
       mode="F"
       radius="0"
       chamfer_steps="1"
       flexible="false"
       use_knot_distance="true"
       apply_no_radius="true"
       apply_with_radius="true"
       only_selected="false"
       hide_knots="false" />
    <inkscape:path-effect
       effect="fillet_chamfer"
       id="path-effect1617"
       is_visible="true"
       lpeversion="1"
       satellites_param="F,0,0,1,0,0,0,1 @ F,0,0,1,0,15.232599,0,1 @ F,0,0,1,0,0,0,1"
       unit="px"
       method="auto"
       mode="F"
       radius="0"
       chamfer_steps="1"
       flexible="false"
       use_knot_distance="true"
       apply_no_radius="true"
       apply_with_radius="true"
       only_selected="false"
       hide_knots="false" />
    <inkscape:path-effect
       effect="fillet_chamfer"
       id="path-effect1597"
       is_visible="true"
       lpeversion="1"
       satellites_param="F,0,0,1,0,0,0,1 @ F,0,0,1,0,5.7403252,0,1 @ F,0,0,1,0,0,0,1"
       unit="px"
       method="auto"
       mode="F"
       radius="0"
       chamfer_steps="1"
       flexible="false"
       use_knot_distance="true"
       apply_no_radius="true"
       apply_with_radius="true"
       only_selected="false"
       hide_knots="false" />
  </defs>
  <sodipodi:namedview
     id="base"
     pagecolor="#ffffff"
     bordercolor="#666666"
     borderopacity="1.0"
     inkscape:pageopacity="0.0"
     inkscape:pageshadow="2"
     inkscape:zoom="2.0000001"
     inkscape:cx="120.42079"
     inkscape:cy="115.77446"
     inkscape:document-units="mm"
     inkscape:current-layer="g952"
     inkscape:document-rotation="0"
     showgrid="false"
     inkscape:window-width="1920"
     inkscape:window-height="980"
     inkscape:window-x="0"
     inkscape:window-y="0"
     inkscape:window-maximized="1"
     inkscape:snap-global="true"
     inkscape:snap-object-midpoints="true"
     inkscape:snap-intersection-paths="true" />
  <metadata
     id="metadata5">
    <rdf:RDF>
      <cc:Work
         rdf:about="">
        <dc:format>image/svg+xml</dc:format>
        <dc:type
           rdf:resource="http://purl.org/dc/dcmitype/StillImage" />
        <dc:title></dc:title>
      </cc:Work>
    </rdf:RDF>
  </metadata>
  <g
     inkscape:groupmode="layer"
     id="g1331"
     inkscape:label="braço esq"
     style="display:inline"
     transform="translate(0,-237)">
    <path
       id="path1319"
       style="display:inline;fill:none;stroke:#04cc74;stroke-width:2.4384799;stroke-linecap:butt;stroke-linejoin:miter;stroke-miterlimit:4;stroke-dasharray:none;stroke-opacity:0.99124989"
       inkscape:label="cotovelo-cut"
       d="m 33.104189,261.44948 2.674911,4.95265"
       inkscape:connector-curvature="0" />
    <path
       id="path1323"
       style="display:inline;fill:none;stroke:#04cc74;stroke-width:2.4384799;stroke-linecap:butt;stroke-linejoin:miter;stroke-miterlimit:4;stroke-dasharray:none;stroke-opacity:0.99124989"
       inkscape:label="cotovelo-cut"
       d="m 33.104196,261.44948 v 0"
       inkscape:connector-curvature="0" />
    <path
       id="path1325"
       style="display:inline;fill:none;stroke:#04cc74;stroke-width:2.4384799;stroke-linecap:butt;stroke-linejoin:miter;stroke-miterlimit:4;stroke-dasharray:none;stroke-opacity:0.99124989"
       inkscape:label="mao"
       d="m 34.611036,256.68159 8.556934,2.55529"
       inkscape:connector-curvature="0" />
    <path
       id="path1572"
       style="display:inline;fill:none;stroke:#04cc74;stroke-width:2.4384799;stroke-linecap:butt;stroke-linejoin:miter;stroke-miterlimit:4;stroke-dasharray:none;stroke-opacity:0.99124989"
       inkscape:label="braco main"
       d="m 29.744928,260.44633 3.359265,1.00315 1.204706,-4.03417 c 0.715415,-2.39571 3.237453,-3.75788 5.633171,-3.04251 l 0.03393,0.01 c 2.395695,0.71538 3.757855,3.23739 3.042465,5.63308 l -1.201795,4.02453"
       inkscape:connector-curvature="0" />
  </g>
  <g
     inkscape:groupmode="layer"
     id="g952"
     inkscape:label="perna_esq"
     style="display:inline"
     transform="translate(0,-237)">
    <path
       style="display:inline;fill:none;stroke:#04cc74;stroke-width:2.4384799;stroke-linecap:butt;stroke-linejoin:miter;stroke-miterlimit:4;stroke-dasharray:none;stroke-opacity:0.99124989"
       d="m 48.101143,266.26564 -2.276215,5.74124"
       id="path940"
       inkscape:connector-curvature="0" />
    <path
       id="path942"
       style="display:inline;fill:none;stroke:#04cc74;stroke-width:2.4384799;stroke-linecap:butt;stroke-linejoin:miter;stroke-miterlimit:4;stroke-dasharray:none;stroke-opacity:0.99124989"
       inkscape:label="3"
       d="m 54.772658,265.72589 -4.469609,11.27356"
       inkscape:connector-curvature="0" />
    <path
       id="path946"
       style="display:inline;fill:none;stroke:#04cc74;stroke-width:2.4384799;stroke-miterlimit:4;stroke-dasharray:none;stroke-opacity:0.99124989"
       inkscape:label="joelho"
       d="m 43.160173,264.34369 a 4.8857145,4.8857145 0 0 1 -1.70633,3.12731 4.8857145,4.8857145 0 0 1 -6.242265,0.0322"
       inkscape:connector-curvature="0" />
    <path
       style="display:inline;fill:none;stroke:#04cc74;stroke-width:2.4384799;stroke-linecap:butt;stroke-linejoin:miter;stroke-miterlimit:4;stroke-dasharray:none;stroke-opacity:0.99124989"
       d="m 34.465051,269.18555 0.405839,-1.02399 c 1.350834,-3.40835 5.209526,-5.0757 8.617721,-3.72444 l 6.506123,2.57947 c 0.962962,-1.67582 2.835955,-2.06062 4.777929,-1.29069 l 2.174169,0.86199 -4.469915,11.27377 -2.767162,-1.0971"
       id="path948"
       inkscape:connector-curvature="0" />
    <path
       style="display:inline;fill:none;stroke:#04cc74;stroke-width:2.4384799;stroke-linecap:butt;stroke-linejoin:miter;stroke-miterlimit:4;stroke-dasharray:none;stroke-opacity:0.99124989"
       d="m 40.116808,268.26885 1.363306,3.15447"
       id="path944-8"
       inkscape:connector-curvature="0" />
    <path
       id="path946-7"
       style="display:inline;fill:none;stroke:#04cc74;stroke-width:2.4384799;stroke-miterlimit:4;stroke-dasharray:none;stroke-opacity:0.99124989"
       inkscape:label="joelho"
       d="m 43.160173,264.34369 a 4.8857145,4.8857145 0 0 1 -1.70633,3.12731 4.8857145,4.8857145 0 0 1 -6.242265,0.0322"
       inkscape:connector-curvature="0" />
  </g>
  <g
     inkscape:groupmode="layer"
     id="layer5"
     inkscape:label="perna_dir"
     style="display:inline"
     transform="translate(0,-237)">
    <path
       inkscape:connector-curvature="0"
       d="m 50.978647,279.11339 -8.065594,4.3562"
       inkscape:label="bota"
       style="display:inline;opacity:1;fill:none;stroke:#04cc74;stroke-width:2.4384799;stroke-linecap:butt;stroke-linejoin:miter;stroke-miterlimit:4;stroke-dasharray:none;stroke-opacity:0.99124989"
       id="path514" />
    <path
       inkscape:connector-curvature="0"
       d="m 56.436266,282.98829 -10.670423,5.76303"
       inkscape:label="3"
       style="display:inline;opacity:1;fill:none;stroke:#04cc74;stroke-width:2.4384799;stroke-linecap:butt;stroke-linejoin:miter;stroke-miterlimit:4;stroke-dasharray:none;stroke-opacity:0.99124989"
       id="path433" />
    <path
       inkscape:connector-curvature="0"
       d="m 43.574652,275.51572 -1.76515,5.91098"
       inkscape:label="joelhotras"
       style="display:inline;opacity:1;fill:none;stroke:#04cc74;stroke-width:2.4384799;stroke-linecap:butt;stroke-linejoin:miter;stroke-miterlimit:4;stroke-dasharray:none;stroke-opacity:0.99124989"
       id="path1066-7-4-9-7" />
    <path
       inkscape:connector-curvature="0"
       d="m 48.429053,274.46511 a 4.8857144,4.8857144 0 0 1 -3.317326,1.29885 4.8857144,4.8857144 0 0 1 -4.802505,-3.98783"
       inkscape:label="joelho"
       style="display:inline;opacity:1;fill:none;stroke:#04cc74;stroke-width:2.4384799;stroke-miterlimit:4;stroke-dasharray:none;stroke-opacity:0.99124989"
       id="path755" />
    <path
       inkscape:connector-curvature="0"
       inkscape:label="corpo preenchido"
       sodipodi:nodetypes="ccsscccccc"
       d="m 30.296761,277.10013 6.536293,-3.53026 2.791961,-1.50836 c 3.225647,-1.74264 7.253319,-0.53958 8.995584,2.68628 l 3.325926,6.15805 c 1.814861,-0.66476 3.497002,0.24439 4.489741,2.08247 l 1.111429,2.05785 -10.670787,5.763 -5.067406,-9.38246 -7.103879,3.83656"
       style="display:inline;opacity:1;fill:none;stroke:#04cc74;stroke-width:2.4384799;stroke-linecap:butt;stroke-linejoin:miter;stroke-miterlimit:4;stroke-dasharray:none;stroke-opacity:0.99124989"
       id="path389-0-3-0" />
  </g>
  <g
     inkscape:groupmode="layer"
     id="layer3"
     inkscape:label="corpo"
     style="display:inline;opacity:1"
     transform="translate(0,-237)">
    <path
       id="path389-0"
       style="display:inline;fill:none;stroke:#04cc74;stroke-width:2.4384799;stroke-linecap:round;stroke-linejoin:miter;stroke-miterlimit:4;stroke-dasharray:none;stroke-opacity:0.99124989"
       inkscape:label="entorno"
       d="m 27.678152,256.61929 9.154902,16.95057"
       inkscape:connector-curvature="0" />
    <path
       id="path1455"
       style="display:inline;fill:none;stroke:#04cc74;stroke-width:2.4384799;stroke-linecap:round;stroke-linejoin:miter;stroke-miterlimit:4;stroke-dasharray:none;stroke-opacity:0.99124989"
       inkscape:label="entorno"
       d="m 10.160595,269.89873 -5.1646966,-9.56257 -2.0106247,-3.72275 c -1.2199442,-2.25876 -0.3778212,-5.0788 1.8809348,-6.29874 l 5.9916975,-3.23608"
       inkscape:connector-curvature="0" />
    <path
       id="path1451"
       style="display:inline;fill:none;stroke:#04cc74;stroke-width:2.4384799;stroke-linecap:round;stroke-linejoin:miter;stroke-miterlimit:4;stroke-dasharray:none;stroke-opacity:0.99124989"
       inkscape:label="entorno"
       d="m 37.43336,283.79026 -4.452537,2.40483 c -5.993834,3.23729 -13.47713,1.00264 -16.714371,-4.99121 l -0.507764,-0.94014"
       inkscape:connector-curvature="0" />
    <path
       id="path140"
       style="display:inline;fill:none;stroke:#04cc74;stroke-width:2.4384799;stroke-linecap:butt;stroke-linejoin:miter;stroke-miterlimit:4;stroke-dasharray:none;stroke-opacity:0.99124989"
       d="m 41.809502,281.4267 v 0"
       inkscape:connector-curvature="0" />
    <path
       id="path535"
       style="display:inline;fill:none;stroke:#04cc74;stroke-width:2.4384799;stroke-linecap:round;stroke-linejoin:miter;stroke-miterlimit:4;stroke-dasharray:none;stroke-opacity:0.99124989"
       inkscape:label="peito"
       d="m 24.433112,259.71995 8.591106,15.90667"
       inkscape:connector-curvature="0" />
    <path
       id="path1476"
       style="display:inline;fill:none;stroke:#04cc74;stroke-width:2.4384799;stroke-linecap:round;stroke-linejoin:miter;stroke-miterlimit:4;stroke-dasharray:none;stroke-opacity:0.99124989"
       d="m 4.875809,250.30948 4.2195766,7.81261 2.9506404,5.46321"
       inkscape:connector-curvature="0" />
    <path
       id="path1066-7-1-6-0"
       style="display:inline;fill:none;stroke:#04cc74;stroke-width:2.4384799;stroke-linecap:butt;stroke-linejoin:miter;stroke-miterlimit:4;stroke-dasharray:none;stroke-opacity:0.99124989"
       d="m 8.4319593,256.89368 -4.0994873,2.2141"
       inkscape:connector-curvature="0" />
    <path
       id="path1066-7-1-6-6"
       style="display:inline;fill:none;stroke:#04cc74;stroke-width:2.4384799;stroke-linecap:butt;stroke-linejoin:miter;stroke-miterlimit:4;stroke-dasharray:none;stroke-opacity:0.99124989"
       d="m 9.7588119,259.3505 -4.0994738,2.21402"
       sodipodi:nodetypes="cc"
       inkscape:connector-curvature="0" />
  </g>
  <g
     inkscape:groupmode="layer"
     id="layer6"
     inkscape:label="braço dir"
     style="display:inline"
     transform="translate(0,-237)">
    <path
       id="path1068-2"
       style="display:inline;fill:none;stroke:#04cc74;stroke-width:2.4384799;stroke-linecap:round;stroke-linejoin:miter;stroke-miterlimit:4;stroke-dasharray:none;stroke-opacity:0.99124989"
       d="m 17.029399,267.7096 -3.071075,-0.91708"
       sodipodi:nodetypes="cc"
       inkscape:label="antebraco"
       inkscape:connector-curvature="0" />
    <path
       id="path1246"
       style="display:inline;fill:none;stroke:#04cc74;stroke-width:2.4384799;stroke-linecap:butt;stroke-linejoin:miter;stroke-miterlimit:4;stroke-dasharray:none;stroke-opacity:0.99124989"
       inkscape:label="cotovelo-cut"
       d="m 19.249182,271.64909 -4.952657,2.67492"
       inkscape:connector-curvature="0" />
    <path
       id="path1119"
       style="fill:none;stroke:#04cc74;stroke-width:2.4384799;stroke-miterlimit:4;stroke-dasharray:none;stroke-opacity:0.99124989"
       d="m 9.6259623,271.77118 a 4.4138684,4.4138684 0 0 1 0.6462887,-0.0477 4.4138684,4.4138684 0 0 1 4.41387,4.41387 v 0 a 4.4138684,4.4138684 0 0 1 -1.328898,3.15677"
       inkscape:label="cotovelo-bola"
       inkscape:connector-curvature="0" />
    <path
       id="path1223"
       style="display:inline;fill:none;stroke:#04cc74;stroke-width:2.4384799;stroke-linecap:butt;stroke-linejoin:miter;stroke-miterlimit:4;stroke-dasharray:none;stroke-opacity:0.99124989"
       inkscape:label="cotovelo-cut"
       d="m 19.249182,271.64911 v 0"
       inkscape:connector-curvature="0" />
    <path
       id="path1287"
       style="display:inline;fill:none;stroke:#04cc74;stroke-width:2.4384799;stroke-linecap:butt;stroke-linejoin:miter;stroke-miterlimit:4;stroke-dasharray:none;stroke-opacity:0.99124989"
       inkscape:label="mao"
       d="m 24.01707,273.15594 -2.555287,8.55694"
       inkscape:connector-curvature="0" />
    <path
       id="path1068"
       style="display:inline;fill:none;stroke:#04cc74;stroke-width:2.4384799;stroke-linecap:round;stroke-linejoin:miter;stroke-miterlimit:4;stroke-dasharray:none;stroke-opacity:0.99124989"
       d="m 21.602518,263.76845 -2.353336,7.88066 4.034174,1.2047 c 2.395702,0.71542 3.757871,3.23745 3.042498,5.63317 l -0.01012,0.0339 c -0.715366,2.39568 -3.237388,3.75785 -5.633074,3.04245 l -6.364059,-1.90042 c -3.586925,-1.07112 -5.6320656,-4.84894 -4.5551877,-8.43415 l 3.6127037,-12.02759"
       sodipodi:nodetypes="cccccccsc"
       inkscape:label="braco main"
       inkscape:connector-curvature="0" />
  </g>
  <g
     inkscape:groupmode="layer"
     id="layer2"
     inkscape:label="cabeça"
     style="display:inline"
     transform="translate(0,-237)">
    <path
       id="path76"
       style="fill:none;stroke:#04cc74;stroke-width:2.4384799;stroke-linecap:round;stroke-linejoin:round;stroke-miterlimit:4;stroke-dasharray:none;stroke-opacity:0.99124989;paint-order:normal"
       d="m 16.591672,250.97776 c -0.0049,-0.0343 -0.01,-0.0686 -0.01466,-0.10291 -0.0049,-0.0343 -0.0089,-0.0685 -0.01296,-0.1029 -0.004,-0.0344 -0.008,-0.0688 -0.01122,-0.10339 -0.0033,-0.0345 -0.0065,-0.0691 -0.0096,-0.10376 -0.0033,-0.0349 -0.0056,-0.0697 -0.008,-0.10461 -0.0024,-0.0349 -0.0049,-0.0697 -0.0065,-0.10461 -0.0016,-0.035 -0.0033,-0.07 -0.0049,-0.1051 -0.0016,-0.035 -0.0024,-0.07 -0.0033,-0.10498 -8.09e-4,-0.0352 -0.0016,-0.0706 -0.0024,-0.10583 -2.1e-4,-0.0352 -2.1e-4,-0.0706 0,-0.10583 1.55e-4,-0.0353 6.4e-4,-0.0708 0.0016,-0.10631 6.39e-4,-0.0356 0.0016,-0.0711 0.0033,-0.10669 8.09e-4,-0.0356 0.0024,-0.0711 0.004,-0.10668 0.0016,-0.0356 0.004,-0.0713 0.0056,-0.10717 0.0024,-0.0357 0.0049,-0.0714 0.008,-0.10717 0.0024,-0.0359 0.0056,-0.0717 0.0088,-0.10754 0.0033,-0.0359 0.0073,-0.0717 0.01085,-0.10754 0.004,-0.0358 0.008,-0.0717 0.01255,-0.10753 0.004,-0.036 0.0089,-0.0719 0.01385,-0.10791 0.0049,-0.036 0.0098,-0.0719 0.01506,-0.10802 0.0056,-0.036 0.01122,-0.0719 0.01717,-0.1079 0.0056,-0.036 0.01195,-0.0719 0.01839,-0.10791 0.0065,-0.0361 0.01312,-0.0722 0.02008,-0.10839 0.0073,-0.036 0.01425,-0.0721 0.02179,-0.1079 0.0073,-0.0361 0.01539,-0.0722 0.0234,-0.10839 0.008,-0.036 0.01619,-0.0721 0.0247,-0.10802 0.0084,-0.0361 0.01701,-0.0722 0.02591,-0.1084 0.009,-0.0361 0.01846,-0.0719 0.02802,-0.1079 0.0095,-0.0361 0.01928,-0.0719 0.02931,-0.1079 0.01,-0.0361 0.02041,-0.0719 0.03093,-0.1079 0.01049,-0.0361 0.02121,-0.0719 0.03223,-0.10791 0.01097,-0.0361 0.02235,-0.0719 0.03393,-0.1079 0.01158,-0.0358 0.02348,-0.0718 0.03555,-0.10754 0.01195,-0.0357 0.02429,-0.0714 0.03685,-0.10717 0.01254,-0.0358 0.02542,-0.0717 0.03847,-0.10753 0.01303,-0.0356 0.02624,-0.0712 0.03976,-0.10669 0.01352,-0.0358 0.02737,-0.0714 0.04138,-0.10717 0.01401,-0.0355 0.02818,-0.071 0.04267,-0.10632 0.01458,-0.0355 0.02931,-0.071 0.04437,-0.10631 0.01499,-0.0355 0.0302,-0.071 0.04559,-0.10632 0.01554,-0.0354 0.03126,-0.0706 0.04729,-0.10583 0.01595,-0.0352 0.03215,-0.0704 0.04859,-0.10547 0.01652,-0.0351 0.0332,-0.07 0.05021,-0.10497 0.01692,-0.0349 0.03409,-0.0699 0.0515,-0.10461 0.01733,-0.0349 0.0349,-0.0696 0.05272,-0.10425 0.0179,-0.0347 0.03603,-0.0696 0.05442,-0.10424 0.0183,-0.0345 0.03684,-0.069 0.05563,-0.1034 0.01879,-0.0345 0.03774,-0.069 0.05693,-0.10339 0.01928,-0.0343 0.03887,-0.0684 0.05862,-0.10253 0.01968,-0.0341 0.03967,-0.0682 0.05984,-0.10206 0.02017,-0.034 0.04049,-0.0679 0.06106,-0.10168 0.02057,-0.0339 0.04138,-0.0675 0.06235,-0.1012 0.02113,-0.0337 0.04243,-0.0673 0.06405,-0.10083 0.02154,-0.0334 0.04332,-0.0667 0.06527,-0.1 0.02179,-0.0333 0.04389,-0.0664 0.06607,-0.0996 0.02235,-0.0332 0.04503,-0.0662 0.06778,-0.0991 0.02284,-0.0329 0.04583,-0.0657 0.06907,-0.0984 0.02324,-0.0327 0.04665,-0.0654 0.07029,-0.0979 0.02364,-0.0324 0.04754,-0.0649 0.07158,-0.097 0.02406,-0.0323 0.04834,-0.0645 0.0728,-0.0967 0.02446,-0.0321 0.04915,-0.064 0.07409,-0.0958 0.02486,-0.0319 0.05004,-0.0638 0.07531,-0.0953 0.02518,-0.0315 0.05061,-0.0629 0.07612,-0.0941 0.02575,-0.0315 0.05166,-0.0629 0.07781,-0.0941 0.02599,-0.0311 0.05223,-0.0621 0.07863,-0.0929 0.02648,-0.031 0.05312,-0.0618 0.07992,-0.0925 0.02688,-0.0305 0.05393,-0.061 0.08118,-0.0912 0.02729,-0.0304 0.05474,-0.0606 0.08243,-0.0908 0.02762,-0.0301 0.05531,-0.0601 0.08327,-0.09 0.02802,-0.0299 0.05619,-0.0596 0.08453,-0.0891 0.02826,-0.0295 0.05677,-0.059 0.08536,-0.0883 0.02866,-0.0293 0.05757,-0.0584 0.08661,-0.0874 0.02907,-0.029 0.05838,-0.0579 0.08787,-0.0866 0.0294,-0.0288 0.05895,-0.0573 0.08871,-0.0858 0.02971,-0.0284 0.05951,-0.0568 0.08955,-0.085 0.03013,-0.0281 0.0604,-0.056 0.09081,-0.0836 0.03037,-0.0279 0.06089,-0.0556 0.09164,-0.0833 0.03077,-0.0275 0.06178,-0.0549 0.09289,-0.0821 0.03093,-0.0272 0.06202,-0.0543 0.09332,-0.0812 0.03149,-0.0268 0.06316,-0.0534 0.09498,-0.08 0.03166,-0.0266 0.06349,-0.0529 0.09542,-0.0791 0.03191,-0.0262 0.06397,-0.0523 0.09624,-0.0783 0.03238,-0.0258 0.06486,-0.0514 0.0975,-0.0771 0.03264,-0.0256 0.06543,-0.051 0.09833,-0.0761 0.0328,-0.0252 0.06567,-0.0504 0.09875,-0.0754 0.0332,-0.0249 0.06656,-0.0495 0.100014,-0.0741 0.03353,-0.0245 0.06713,-0.0488 0.100844,-0.0728 0.03376,-0.0241 0.06762,-0.0482 0.101684,-0.0719 0.03393,-0.0238 0.06794,-0.0473 0.1021,-0.0707 0.03418,-0.0235 0.06851,-0.0468 0.10294,-0.0699 0.03449,-0.023 0.06907,-0.046 0.103782,-0.0686 0.03474,-0.0227 0.06964,-0.0451 0.104611,-0.0674 0.03506,-0.0223 0.0702,-0.0443 0.105439,-0.0662 0.03514,-0.022 0.07045,-0.0438 0.105879,-0.0652 0.0098,-0.006 0.01952,-0.0122 0.02931,-0.0176 l 8e-6,2e-5 c -0.672959,-0.1452 -1.359457,-0.21843 -2.047897,-0.21843 -5.362667,-1.8e-4 -9.7100743,4.34704 -9.7101279,9.70971 5.36e-5,5.36267 4.3474609,9.70989 9.7101279,9.70971 3.908459,-1.1e-4 7.435852,-2.34362 8.950642,-5.9466 -0.0073,0.004 -0.01481,0.009 -0.02219,0.0122 -0.03644,0.0196 -0.07296,0.0389 -0.109634,0.0582 l -0.0083,0.004 c -0.0366,0.0191 -0.07329,0.0382 -0.110048,0.0569 -0.03685,0.0187 -0.07385,0.0369 -0.110902,0.0552 -0.037,0.0183 -0.07409,0.0365 -0.111305,0.0544 -0.03716,0.0178 -0.07441,0.0354 -0.111719,0.0527 -0.03749,0.0174 -0.07498,0.0349 -0.11256,0.0519 -0.03749,0.0169 -0.07498,0.0336 -0.11256,0.0502 -0.03774,0.0166 -0.07554,0.0329 -0.113402,0.049 -0.03774,0.0162 -0.07556,0.0323 -0.113401,0.048 -0.03789,0.0157 -0.07579,0.0312 -0.113816,0.0465 -0.03814,0.0154 -0.07636,0.0303 -0.114657,0.0452 -0.03814,0.0147 -0.07636,0.0293 -0.114658,0.0435 -0.03814,0.0144 -0.07636,0.0286 -0.114657,0.0427 -0.03847,0.0139 -0.07692,0.0276 -0.115487,0.041 -0.03847,0.0134 -0.07692,0.0267 -0.115498,0.0397 -0.03863,0.013 -0.07725,0.026 -0.115913,0.0384 -0.03871,0.0127 -0.0775,0.025 -0.116328,0.0373 -0.03871,0.0122 -0.07749,0.024 -0.116328,0.0356 -0.03871,0.0122 -0.07749,0.0234 -0.116327,0.0348 -0.03887,0.011 -0.07781,0.0221 -0.116755,0.0327 -0.03903,0.011 -0.07805,0.0215 -0.117157,0.0318 -0.03887,0.01 -0.07782,0.0204 -0.116754,0.0301 -0.03903,0.01 -0.07806,0.0195 -0.117157,0.0289 -0.03919,0.01 -0.07838,0.0184 -0.117583,0.0272 -0.03903,0.009 -0.07806,0.0178 -0.117169,0.0263 -0.03919,0.009 -0.07839,0.0165 -0.117596,0.0243 -0.03903,0.009 -0.07814,0.0159 -0.117157,0.0234 -0.03919,0.007 -0.07839,0.0148 -0.117583,0.0218 -0.03903,0.007 -0.07814,0.0137 -0.117157,0.0201 -0.03919,0.006 -0.07838,0.013 -0.117596,0.0193 -0.03919,0.006 -0.07839,0.0122 -0.117583,0.0172 -0.03903,0.006 -0.07814,0.011 -0.117157,0.0163 -0.03911,0.005 -0.07814,0.01 -0.117169,0.0143 -0.03911,0.005 -0.07814,0.01 -0.117157,0.0134 -0.03895,0.004 -0.07781,0.009 -0.116742,0.0122 -0.03895,0.004 -0.0779,0.007 -0.116754,0.011 -0.03895,0.004 -0.0779,0.006 -0.116755,0.009 -0.03878,0.002 -0.07757,0.005 -0.116327,0.007 -0.03878,0.002 -0.07758,0.004 -0.116328,0.006 -0.03871,10e-4 -0.07734,0.004 -0.115913,0.005 -0.03871,10e-4 -0.07732,0.002 -0.115913,0.004 -0.03838,8.2e-4 -0.07676,0.001 -0.115072,0.001 -0.03854,4.3e-4 -0.07709,4.3e-4 -0.115499,4.3e-4 -0.0383,-2.1e-4 -0.07652,-8.1e-4 -0.114657,-10e-4 -0.03814,-6.5e-4 -0.0762,-0.001 -0.114243,-0.002 -0.03814,-8e-4 -0.0762,-0.002 -0.114231,-0.004 -0.03798,-10e-4 -0.07596,-0.004 -0.113816,-0.006 -0.03789,-0.002 -0.07571,-0.005 -0.113401,-0.007 -0.03774,-0.002 -0.07539,-0.006 -0.112975,-0.009 -0.03749,-0.004 -0.07483,-0.006 -0.112146,-0.01 -0.03749,-0.004 -0.07482,-0.007 -0.112145,-0.0122 -0.03716,-0.004 -0.07425,-0.009 -0.111305,-0.0129 -0.03717,-0.005 -0.07425,-0.01 -0.111304,-0.0143 -0.03692,-0.005 -0.07376,-0.01 -0.110463,-0.0159 -0.0366,-0.006 -0.0732,-0.011 -0.109634,-0.0172 -0.03669,-0.006 -0.0732,-0.0122 -0.109647,-0.0184 -0.03636,-0.006 -0.07263,-0.0132 -0.108792,-0.0201 -0.03611,-0.007 -0.07207,-0.0143 -0.107964,-0.0218 -0.03596,-0.007 -0.07183,-0.0148 -0.107549,-0.0226 -0.03579,-0.009 -0.0715,-0.016 -0.107123,-0.0243 -0.03538,-0.009 -0.07069,-0.0171 -0.105866,-0.026 -0.03538,-0.009 -0.07069,-0.0179 -0.105867,-0.0272 -0.03498,-0.01 -0.06989,-0.0188 -0.104623,-0.0284 -0.03482,-0.01 -0.06956,-0.0199 -0.104184,-0.0301 -0.03458,-0.01 -0.06898,-0.0206 -0.103355,-0.0315 -0.03442,-0.011 -0.06875,-0.0216 -0.10294,-0.0327 -0.03401,-0.011 -0.06794,-0.0223 -0.101685,-0.0339 -0.03393,-0.0122 -0.06762,-0.0235 -0.101258,-0.0356 -0.03344,-0.0122 -0.0668,-0.0243 -0.100014,-0.0368 -0.03336,-0.0127 -0.06656,-0.0255 -0.09959,-0.0385 -0.03296,-0.0129 -0.06567,-0.026 -0.09833,-0.0394 -0.0328,-0.0134 -0.06543,-0.0272 -0.09792,-0.041 -0.0324,-0.0139 -0.06462,-0.0279 -0.09667,-0.0423 -0.03223,-0.0143 -0.06429,-0.0289 -0.09624,-0.0435 -0.03182,-0.0148 -0.06349,-0.0299 -0.09499,-0.0452 -0.0315,-0.0151 -0.06291,-0.0305 -0.09415,-0.046 -0.03109,-0.0157 -0.06211,-0.0316 -0.09289,-0.0477 -0.03085,-0.016 -0.06154,-0.0322 -0.09207,-0.0486 -0.0306,-0.0165 -0.06097,-0.0333 -0.09122,-0.0502 -0.03029,-0.0169 -0.0604,-0.0341 -0.09039,-0.0514 -0.02988,-0.0173 -0.0596,-0.0349 -0.08913,-0.0527 -0.02964,-0.0178 -0.05904,-0.0357 -0.0883,-0.054 -0.02915,-0.0182 -0.05822,-0.0366 -0.08704,-0.0552 -0.02875,-0.0187 -0.05733,-0.0374 -0.08579,-0.0566"
       sodipodi:nodetypes="csccccccccccccccccccccscscccccccccsssscccccccsccccccccccccccccsccccccccccccccccccccccccccccccccccccccccccccccccccccccsscccccscccccccccccccccccccccccccccccccccccccccscccscscccscccccccccccc"
       inkscape:connector-curvature="0" />
    <path
       id="path958"
       style="fill:none;stroke:#04cc74;stroke-width:2.4384799;stroke-linecap:round;stroke-linejoin:round;stroke-miterlimit:4;stroke-dasharray:none;stroke-opacity:0.99124989;paint-order:normal"
       d="m 21.575845,241.8769 c -0.0098,0.006 -0.01952,0.0122 -0.02931,0.0176 -0.03538,0.0216 -0.07069,0.0433 -0.105867,0.0652 -0.03522,0.0218 -0.07045,0.0439 -0.105439,0.0661 -0.03498,0.0223 -0.06987,0.0447 -0.104611,0.0674 -0.03474,0.0227 -0.06931,0.0456 -0.103782,0.0687 -0.03442,0.023 -0.06875,0.0464 -0.10294,0.0699 -0.03418,0.0234 -0.06818,0.0469 -0.1021,0.0707 -0.034,0.0238 -0.06794,0.0478 -0.101684,0.0719 -0.03377,0.0241 -0.06738,0.0484 -0.100843,0.0728 -0.03344,0.0245 -0.0668,0.0493 -0.100015,0.0741 -0.03304,0.025 -0.066,0.05 -0.09875,0.0754 -0.03296,0.0252 -0.06567,0.0506 -0.09833,0.0762 -0.03263,0.0255 -0.06511,0.0512 -0.0975,0.0771 -0.03223,0.0258 -0.06429,0.0519 -0.09625,0.0781 -0.03198,0.0262 -0.06373,0.0526 -0.09541,0.0791 -0.03182,0.0264 -0.06349,0.0532 -0.09498,0.08 -0.03126,0.0268 -0.06235,0.0539 -0.09332,0.0812 -0.03109,0.0272 -0.06211,0.0545 -0.09289,0.0821 -0.03069,0.0276 -0.0613,0.0554 -0.09164,0.0833 -0.03044,0.0278 -0.06073,0.0556 -0.09081,0.0836 -0.03004,0.0282 -0.05984,0.0565 -0.08955,0.085 -0.02971,0.0284 -0.05935,0.0571 -0.08871,0.0858 -0.02947,0.0288 -0.05879,0.0575 -0.08787,0.0866 -0.02907,0.029 -0.0579,0.0582 -0.08663,0.0874 -0.02866,0.0293 -0.05709,0.0587 -0.08536,0.0883 -0.02835,0.0295 -0.05652,0.0593 -0.08453,0.0891 -0.02793,0.0299 -0.05571,0.0599 -0.08327,0.09 -0.02769,0.0301 -0.05515,0.0605 -0.08243,0.0908 -0.02729,0.0302 -0.05433,0.0606 -0.08118,0.0912 -0.0268,0.0307 -0.05344,0.0616 -0.07992,0.0924 -0.0264,0.0309 -0.05263,0.0618 -0.07863,0.0929 -0.02615,0.0312 -0.05206,0.0627 -0.07781,0.0941 -0.02559,0.0312 -0.05101,0.0627 -0.07612,0.0941 -0.02535,0.0317 -0.05045,0.0635 -0.0753,0.0953 -0.02486,0.0318 -0.04956,0.0638 -0.07409,0.0958 -0.02446,0.0322 -0.04874,0.0644 -0.0728,0.0967 -0.02406,0.0322 -0.04794,0.0646 -0.07158,0.097 -0.02364,0.0326 -0.04705,0.0652 -0.07029,0.0979 -0.02324,0.0327 -0.04623,0.0655 -0.06907,0.0984 -0.02284,0.0329 -0.04543,0.066 -0.06778,0.0991 -0.02226,0.0332 -0.04429,0.0663 -0.06607,0.0996 -0.02195,0.0333 -0.04372,0.0666 -0.06527,0.1 -0.02154,0.0335 -0.04292,0.0671 -0.06405,0.10083 -0.02097,0.0337 -0.04178,0.0674 -0.06235,0.10132 -0.02057,0.0339 -0.04098,0.0677 -0.06106,0.10169 -0.02017,0.0339 -0.04009,0.068 -0.05984,0.10217 -0.01975,0.0341 -0.03927,0.0683 -0.05862,0.10254 -0.01919,0.0344 -0.03814,0.0689 -0.05693,0.10339 -0.01879,0.0344 -0.03733,0.0689 -0.05563,0.10339 -0.01839,0.0346 -0.03652,0.0694 -0.05441,0.10425 -0.01781,0.0346 -0.03538,0.0694 -0.05272,0.10424 -0.01741,0.0349 -0.03458,0.0697 -0.0515,0.10461 -0.01701,0.035 -0.03369,0.07 -0.05021,0.1051 -0.01644,0.0351 -0.03264,0.0702 -0.0485,0.10546 -0.01603,0.0352 -0.03174,0.0706 -0.0473,0.10583 -0.01547,0.0354 -0.03069,0.0708 -0.04559,0.10632 -0.01506,0.0354 -0.0298,0.0708 -0.04437,0.10632 -0.0145,0.0354 -0.02867,0.0708 -0.04267,0.10632 -0.01409,0.0356 -0.02786,0.0714 -0.04145,0.10717 -0.01352,0.0356 -0.02673,0.0711 -0.03976,0.10668 -0.01312,0.0359 -0.02591,0.0717 -0.03847,0.10754 -0.01255,0.0357 -0.02477,0.0714 -0.03685,0.10705 -0.01207,0.0358 -0.02397,0.0717 -0.03555,0.10754 -0.01158,0.036 -0.02284,0.0719 -0.03393,0.1079 -0.01097,0.036 -0.0217,0.0721 -0.03223,0.10802 -0.01061,0.036 -0.02088,0.0719 -0.03093,0.10791 -0.01,0.036 -0.01976,0.0719 -0.02931,0.1079 -0.0096,0.036 -0.01895,0.0719 -0.02802,0.1079 -0.0089,0.0361 -0.01757,0.0722 -0.02591,0.10839 -0.0085,0.036 -0.01668,0.0719 -0.0247,0.1079 -0.008,0.0361 -0.01587,0.0722 -0.0234,0.1084 -0.0073,0.036 -0.01474,0.0719 -0.02179,0.10802 -0.0073,0.0361 -0.01361,0.0722 -0.02008,0.10839 -0.0065,0.0361 -0.01255,0.0719 -0.01839,0.1079 -0.0056,0.0361 -0.01171,0.0719 -0.01717,0.10791 -0.0056,0.0361 -0.01024,0.0719 -0.01506,0.1079 -0.0049,0.0361 -0.0095,0.0719 -0.01385,0.1079 -0.004,0.0358 -0.0087,0.0717 -0.01255,0.10754 -0.004,0.0358 -0.0073,0.0717 -0.01085,0.10754 -0.0033,0.0358 -0.0065,0.0717 -0.0088,0.10753 -0.0033,0.0357 -0.0056,0.0714 -0.008,0.10717 -0.0024,0.0357 -0.004,0.0714 -0.0056,0.10717 -0.0016,0.0356 -0.0033,0.0712 -0.004,0.10669 -0.0016,0.0356 -0.0024,0.0712 -0.0033,0.10668 -6.49e-4,0.0355 -8.09e-4,0.071 -0.0016,0.10632 -2.18e-4,0.0354 -2.18e-4,0.0706 0,0.10583 4.29e-4,0.0354 8.11e-4,0.0706 0.0024,0.10583 8.09e-4,0.0351 0.0016,0.07 0.0033,0.1051 0.0016,0.0351 0.0033,0.07 0.0049,0.10497 0.0016,0.0349 0.004,0.0697 0.0065,0.10462 0.0024,0.0349 0.0049,0.0697 0.008,0.10461 0.0033,0.0346 0.0065,0.0693 0.0096,0.10375 0.0033,0.0345 0.0073,0.069 0.01134,0.10339 0.004,0.0344 0.0083,0.0686 0.01296,0.10291 0.0049,0.0344 0.0095,0.0686 0.01466,0.1029 0.0049,0.0341 0.01036,0.0682 0.01587,0.10205 0.0056,0.034 0.01146,0.0679 0.01757,0.10169 0.0065,0.0336 0.01255,0.0673 0.01928,0.10083 0.0065,0.0336 0.01345,0.0673 0.02048,0.10083 0.0073,0.0334 0.02219,0.1 0.02219,0.1 0,0 0.0024,0.009 0.0033,0.0134 1.420788,0.16517 2.492394,1.36867 2.492289,2.79901 -7.3e-5,0.26505 -0.03758,0.52876 -0.111304,0.78334 0.0095,0.007 0.01895,0.0139 0.02842,0.0208 0.02786,0.0198 0.05588,0.0393 0.0841,0.0585 0.0281,0.0194 0.05644,0.0387 0.08496,0.0578 0.02842,0.019 0.05701,0.0379 0.08577,0.0566 0.02882,0.0187 0.05782,0.037 0.08704,0.0552 0.02924,0.0182 0.05871,0.0362 0.0883,0.054 0.02955,0.0178 0.05928,0.0353 0.08913,0.0527 0.02996,0.0174 0.06008,0.0345 0.09038,0.0514 0.03029,0.017 0.06065,0.0336 0.09122,0.0502 0.03053,0.0163 0.06122,0.0326 0.09206,0.0485 0.03077,0.0161 0.06178,0.0319 0.09289,0.0477 0.03126,0.0155 0.0626,0.031 0.09415,0.046 0.0315,0.0154 0.06316,0.0303 0.09499,0.0452 0.03191,0.0148 0.06397,0.0293 0.09625,0.0435 0.03207,0.0144 0.06429,0.0284 0.09666,0.0423 0.03247,0.0138 0.06511,0.0276 0.09792,0.041 0.03263,0.0134 0.06543,0.0265 0.09833,0.0394 0.03304,0.013 0.06624,0.026 0.09959,0.0385 0.0332,0.0126 0.06656,0.0248 0.100014,0.0368 0.0336,0.0122 0.06737,0.024 0.10127,0.0356 0.03377,0.011 0.06769,0.0228 0.101685,0.0339 0.03418,0.011 0.06851,0.0221 0.10294,0.0327 0.03433,0.011 0.06875,0.0211 0.103367,0.0315 0.03458,0.01 0.06931,0.0204 0.104184,0.0301 0.03474,0.01 0.06964,0.0191 0.104611,0.0284 0.03514,0.01 0.07045,0.0184 0.105867,0.0272 0.03514,0.009 0.07045,0.0174 0.105866,0.026 0.03563,0.009 0.07134,0.0165 0.107123,0.0243 0.03578,0.009 0.07158,0.0154 0.107537,0.0226 0.03587,0.007 0.07191,0.0147 0.107963,0.0218 0.0362,0.007 0.07239,0.0136 0.108793,0.0201 0.03644,0.006 0.07296,0.0126 0.109634,0.0184 0.03644,0.006 0.07296,0.0122 0.109634,0.0172 0.03676,0.006 0.07352,0.011 0.110476,0.0159 0.037,0.005 0.07409,0.01 0.111304,0.0143 0.037,0.005 0.07409,0.009 0.111304,0.0129 0.03733,0.004 0.07465,0.009 0.112146,0.0122 0.03733,0.004 0.07465,0.007 0.112146,0.01 0.03758,0.004 0.07523,0.006 0.112987,0.009 0.03774,0.002 0.07554,0.005 0.113401,0.007 0.03789,0.002 0.07579,0.004 0.113816,0.006 0.03798,0.001 0.07612,0.004 0.114243,0.004 0.03798,8.1e-4 0.07612,10e-4 0.114231,0.002 0.03814,8.1e-4 0.07636,10e-4 0.114657,10e-4 0.03847,10e-5 0.07692,-3e-5 0.115486,-4.2e-4 0.0383,-2.2e-4 0.07668,-8.2e-4 0.115072,-10e-4 0.03863,-6.5e-4 0.07725,-10e-4 0.115913,-0.004 0.03863,-10e-4 0.07725,-0.002 0.115914,-0.005 0.03871,-10e-4 0.07749,-0.004 0.116327,-0.006 0.03871,-0.002 0.0775,-0.005 0.116328,-0.007 0.03887,-0.002 0.07781,-0.006 0.116754,-0.009 0.03887,-0.004 0.07781,-0.006 0.116755,-0.011 0.03887,-0.004 0.07781,-0.007 0.116742,-0.0122 0.03903,-0.004 0.07806,-0.009 0.117169,-0.0134 0.03903,-0.005 0.07806,-0.01 0.117157,-0.0143 0.03903,-0.005 0.07806,-0.011 0.117169,-0.0163 0.03919,-0.006 0.07839,-0.011 0.117583,-0.0172 0.03919,-0.006 0.07838,-0.0126 0.117584,-0.0193 0.03903,-0.006 0.07814,-0.0132 0.117157,-0.0201 0.03919,-0.007 0.07838,-0.0143 0.117583,-0.0218 0.03903,-0.007 0.07814,-0.0154 0.117169,-0.0234 0.03919,-0.009 0.07838,-0.016 0.117584,-0.0243 0.03903,-0.009 0.07814,-0.0173 0.117156,-0.0263 0.03919,-0.009 0.07839,-0.0179 0.117584,-0.0272 0.03903,-0.01 0.07814,-0.019 0.117169,-0.0289 0.03895,-0.01 0.07781,-0.0199 0.116742,-0.0301 0.03911,-0.01 0.07814,-0.021 0.117169,-0.0318 0.03895,-0.011 0.07781,-0.0216 0.116742,-0.0327 0.03878,-0.011 0.07758,-0.0229 0.116328,-0.0348 0.03878,-0.0122 0.07757,-0.0235 0.11634,-0.0356 0.03878,-0.0122 0.07758,-0.0246 0.116327,-0.0372 0.03871,-0.0127 0.07732,-0.0255 0.115901,-0.0384 0.03854,-0.013 0.07701,-0.0262 0.115499,-0.0397 0.03854,-0.0134 0.07701,-0.0271 0.115486,-0.0411 0.0383,-0.014 0.07652,-0.0283 0.114658,-0.0427 0.0383,-0.0143 0.07652,-0.0288 0.114657,-0.0435 0.0383,-0.0147 0.07652,-0.0299 0.114657,-0.0452 0.03798,-0.0154 0.07596,-0.0307 0.113816,-0.0465 0.03789,-0.0159 0.07571,-0.0318 0.113402,-0.048 0.03789,-0.0161 0.07563,-0.0324 0.113402,-0.049 0.03758,-0.0165 0.07514,-0.0333 0.11256,-0.0502 0.03758,-0.0171 0.07514,-0.0344 0.11256,-0.0519 0.03733,-0.0174 0.07458,-0.0349 0.111731,-0.0527 0.03716,-0.0179 0.07425,-0.0361 0.111305,-0.0544 0.037,-0.0182 0.07401,-0.0366 0.110889,-0.0552 0.03676,-0.0188 0.07345,-0.0378 0.110049,-0.0569 l 0.0083,-0.004 c 0.03669,-0.0191 0.0732,-0.0385 0.109634,-0.0582 0.0073,-0.004 0.01481,-0.009 0.02219,-0.0122 0.500944,-1.19136 0.759011,-2.47073 0.759068,-3.76312 -4.1e-5,-4.57333 -3.19137,-8.52668 -7.661812,-9.49128 z m -4.885407,9.61975 c 0,0 -0.216763,-0.0189 -0.325553,-0.0189 -1.556128,1.3e-4 -2.817525,1.26171 -2.817419,2.81784 1.29e-4,1.55596 1.261453,2.81729 2.817419,2.81742 1.254376,0 2.3577,-0.82919 2.706532,-2.03409 v 1e-5"
       sodipodi:nodetypes="cccccccccccccccccccccccccccccccccsccccccccccccccccscccccccsssscccccccccscsccccccccccccccccccccscccccccccccccccccccccccscccscscccscccccccccccccccccccccccccccccccccccccccscccccssccccccccccccccccccccccccsc"
       inkscape:connector-curvature="0" />
    <path
       id="path961"
       style="fill:none;stroke:#04cc74;stroke-width:2.4384799;stroke-linecap:round;stroke-linejoin:miter;stroke-miterlimit:4;stroke-dasharray:none;stroke-opacity:0.99124989;paint-order:normal"
       d="m 26.481325,252.49171 c 0.07401,-0.36988 0.117254,-0.74526 0.129309,-1.12227 0.0024,-0.0727 0.0033,-0.14533 0.0033,-0.21801 m -0.275801,-1.64988 c -0.786753,-2.58659 -2.671066,-4.01986 -4.905375,-4.88897"
       sodipodi:nodetypes="ccccc"
       inkscape:connector-curvature="0" />
  </g>
</svg>
