<?xml version="1.0" encoding="UTF-8" standalone="no"?>
<svg
   xmlns:dc="http://purl.org/dc/elements/1.1/"
   xmlns:cc="http://creativecommons.org/ns#"
   xmlns:rdf="http://www.w3.org/1999/02/22-rdf-syntax-ns#"
   xmlns:svg="http://www.w3.org/2000/svg"
   xmlns="http://www.w3.org/2000/svg"
   xmlns:sodipodi="http://sodipodi.sourceforge.net/DTD/sodipodi-0.dtd"
   xmlns:inkscape="http://www.inkscape.org/namespaces/inkscape"
   width="60mm"
   height="60mm"
   viewBox="0 0 60 60"
   version="1.1"
   id="svg8"
   sodipodi:docname="astronauta_puro.svg"
   inkscape:version="0.92.5 (2060ec1f9f, 2020-04-08)">
  <defs
     id="defs2">
    <inkscape:path-effect
       effect="fillet_chamfer"
       id="path-effect1094"
       is_visible="true"
       lpeversion="1"
       satellites_param="F,0,0,1,0,0,0,1 @ F,0,0,1,0,0,0,1 @ F,0,0,1,0,0,0,1 @ F,0,0,1,0,0,0,1 @ F,0,0,1,0,0,0,1 @ F,0,0,1,0,0,0,1 @ F,0,0,1,0,31.637062,0,1 @ F,0,0,1,0,0,0,1 @ F,0,0,1,0,0,0,1"
       unit="px"
       method="auto"
       mode="F"
       radius="0"
       chamfer_steps="1"
       flexible="false"
       use_knot_distance="true"
       apply_no_radius="true"
       apply_with_radius="true"
       only_selected="false"
       hide_knots="false" />
    <inkscape:path-effect
       effect="fillet_chamfer"
       id="path-effect1075"
       is_visible="true"
       lpeversion="1"
       satellites_param="F,0,0,1,0,0,0,1 @ F,0,0,1,0,0,0,1 @ F,0,0,1,0,0,0,1 @ F,0,0,1,0,0,0,1 @ F,0,0,1,0,0,0,1 @ F,0,0,1,0,0,0,1 @ F,0,0,1,0,31.637062,0,1 @ F,0,0,1,0,0,0,1 @ F,0,0,1,0,0,0,1"
       unit="px"
       method="auto"
       mode="F"
       radius="0"
       chamfer_steps="1"
       flexible="false"
       use_knot_distance="true"
       apply_no_radius="true"
       apply_with_radius="true"
       only_selected="false"
       hide_knots="false" />
    <inkscape:path-effect
       effect="fillet_chamfer"
       id="path-effect1073"
       is_visible="true"
       lpeversion="1"
       satellites_param="F,0,0,1,0,0,0,1 @ F,0,0,1,0,0,0,1 @ F,0,0,1,0,21.130186,0,1 @ F,0,1,1,0,21.130186,0,1 @ F,0,0,1,0,0,0,1 @ F,0,0,1,0,0,0,1 @ F,0,0,1,0,0,0,1"
       unit="px"
       method="auto"
       mode="F"
       radius="0"
       chamfer_steps="1"
       flexible="false"
       use_knot_distance="true"
       apply_no_radius="true"
       apply_with_radius="true"
       only_selected="false"
       hide_knots="false" />
    <inkscape:path-effect
       effect="fillet_chamfer"
       id="path-effect407"
       is_visible="true"
       lpeversion="1"
       satellites_param="F,0,0,1,0,0,0,1 @ F,0,0,1,0,0,0,1 @ F,0,0,1,0,0,0,1 @ F,0,0,1,0,0,0,1 @ F,0,0,1,0,18.511007,0,1 @ F,0,0,1,0,0,0,1"
       unit="px"
       method="auto"
       mode="F"
       radius="0"
       chamfer_steps="1"
       flexible="false"
       use_knot_distance="true"
       apply_no_radius="true"
       apply_with_radius="true"
       only_selected="false"
       hide_knots="false" />
    <inkscape:path-effect
       effect="fillet_chamfer"
       id="path-effect366"
       is_visible="true"
       lpeversion="1"
       satellites_param="F,0,0,1,0,0,0,1 @ F,0,0,1,0,0,0,1 @ F,0,0,1,0,0,0,1 @ F,0,0,1,0,0,0,1 @ F,0,0,1,0,15.592284,0,1 @ F,0,0,1,0,0,0,1"
       unit="px"
       method="auto"
       mode="F"
       radius="0"
       chamfer_steps="1"
       flexible="false"
       use_knot_distance="true"
       apply_no_radius="true"
       apply_with_radius="true"
       only_selected="false"
       hide_knots="false" />
    <inkscape:path-effect
       effect="fillet_chamfer"
       id="path-effect205"
       is_visible="true"
       lpeversion="1"
       satellites_param="F,0,0,1,0,0,0,1 @ F,0,0,1,0,0,0,1 @ F,0,0,1,0,0,0,1 @ F,0,0,1,0,0,0,1 @ F,0,0,1,0,16.751524,0,1 @ F,0,0,1,0,0,0,1"
       unit="px"
       method="auto"
       mode="F"
       radius="0"
       chamfer_steps="1"
       flexible="false"
       use_knot_distance="true"
       apply_no_radius="true"
       apply_with_radius="true"
       only_selected="false"
       hide_knots="false" />
    <inkscape:path-effect
       effect="fillet_chamfer"
       id="path-effect185"
       is_visible="true"
       lpeversion="1"
       satellites_param="F,0,0,1,0,0,0,1 @ F,0,0,1,0,30.984869,0,1 @ F,0,0,1,0,0,0,1"
       unit="px"
       method="auto"
       mode="F"
       radius="0"
       chamfer_steps="1"
       flexible="false"
       use_knot_distance="true"
       apply_no_radius="true"
       apply_with_radius="true"
       only_selected="false"
       hide_knots="false" />
    <inkscape:path-effect
       effect="fillet_chamfer"
       id="path-effect138"
       is_visible="true"
       lpeversion="1"
       satellites_param="F,0,0,1,0,0,0,1 @ F,0,0,1,0,15.232599,0,1 @ F,0,0,1,0,0,0,1"
       unit="px"
       method="auto"
       mode="F"
       radius="0"
       chamfer_steps="1"
       flexible="false"
       use_knot_distance="true"
       apply_no_radius="true"
       apply_with_radius="true"
       only_selected="false"
       hide_knots="false" />
    <inkscape:path-effect
       effect="fillet_chamfer"
       id="path-effect83"
       is_visible="true"
       lpeversion="1"
       satellites_param="F,0,0,1,0,0,0,1 @ F,0,0,1,0,15.232599,0,1 @ F,0,0,1,0,0,0,1"
       unit="px"
       method="auto"
       mode="F"
       radius="0"
       chamfer_steps="1"
       flexible="false"
       use_knot_distance="true"
       apply_no_radius="true"
       apply_with_radius="true"
       only_selected="false"
       hide_knots="false" />
    <inkscape:path-effect
       effect="fillet_chamfer"
       id="path-effect58"
       is_visible="true"
       lpeversion="1"
       satellites_param="F,0,0,1,0,0,0,1 @ F,0,0,1,0,7.5360455,0,1 @ F,0,0,1,0,0,0,1"
       unit="px"
       method="auto"
       mode="F"
       radius="0"
       chamfer_steps="1"
       flexible="false"
       use_knot_distance="true"
       apply_no_radius="true"
       apply_with_radius="true"
       only_selected="false"
       hide_knots="false" />
    <inkscape:path-effect
       effect="fillet_chamfer"
       id="path-effect2362"
       is_visible="true"
       lpeversion="1"
       satellites_param="F,0,0,1,0,0,0,1 @ F,0,0,1,0,7.9986337,0,1 @ F,0,0,1,0,0,0,1"
       unit="px"
       method="auto"
       mode="F"
       radius="0"
       chamfer_steps="1"
       flexible="false"
       use_knot_distance="true"
       apply_no_radius="true"
       apply_with_radius="true"
       only_selected="false"
       hide_knots="false" />
    <inkscape:path-effect
       effect="fillet_chamfer"
       id="path-effect1617"
       is_visible="true"
       lpeversion="1"
       satellites_param="F,0,0,1,0,0,0,1 @ F,0,0,1,0,15.232599,0,1 @ F,0,0,1,0,0,0,1"
       unit="px"
       method="auto"
       mode="F"
       radius="0"
       chamfer_steps="1"
       flexible="false"
       use_knot_distance="true"
       apply_no_radius="true"
       apply_with_radius="true"
       only_selected="false"
       hide_knots="false" />
    <inkscape:path-effect
       effect="fillet_chamfer"
       id="path-effect1597"
       is_visible="true"
       lpeversion="1"
       satellites_param="F,0,0,1,0,0,0,1 @ F,0,0,1,0,5.7403252,0,1 @ F,0,0,1,0,0,0,1"
       unit="px"
       method="auto"
       mode="F"
       radius="0"
       chamfer_steps="1"
       flexible="false"
       use_knot_distance="true"
       apply_no_radius="true"
       apply_with_radius="true"
       only_selected="false"
       hide_knots="false" />
  </defs>
  <sodipodi:namedview
     id="base"
     pagecolor="#ffffff"
     bordercolor="#666666"
     borderopacity="1.0"
     inkscape:pageopacity="0.0"
     inkscape:pageshadow="2"
     inkscape:zoom="1.4142136"
     inkscape:cx="34.273422"
     inkscape:cy="164.91228"
     inkscape:document-units="mm"
     inkscape:current-layer="g952"
     inkscape:document-rotation="0"
     showgrid="false"
     inkscape:window-width="1920"
     inkscape:window-height="980"
     inkscape:window-x="0"
     inkscape:window-y="0"
     inkscape:window-maximized="1"
     inkscape:snap-global="true"
     inkscape:snap-object-midpoints="true"
     inkscape:snap-intersection-paths="true" />
  <metadata
     id="metadata5">
    <rdf:RDF>
      <cc:Work
         rdf:about="">
        <dc:format>image/svg+xml</dc:format>
        <dc:type
           rdf:resource="http://purl.org/dc/dcmitype/StillImage" />
        <dc:title></dc:title>
      </cc:Work>
    </rdf:RDF>
  </metadata>
  <g
     inkscape:groupmode="layer"
     id="g1331"
     inkscape:label="braço esq"
     style="display:inline"
     transform="translate(0,-237)">
    <path
       id="path1319"
       style="display:inline;fill:none;stroke:#04cc74;stroke-width:1.19545758;stroke-linecap:butt;stroke-linejoin:miter;stroke-miterlimit:4;stroke-dasharray:none;stroke-opacity:0.99124989"
       inkscape:label="cotovelo-cut"
       d="m 32.79502,263.84542 2.193917,4.06208"
       inkscape:connector-curvature="0" />
    <path
       id="path1323"
       style="display:inline;fill:none;stroke:#04cc74;stroke-width:1.19545758;stroke-linecap:butt;stroke-linejoin:miter;stroke-miterlimit:4;stroke-dasharray:none;stroke-opacity:0.99124989"
       inkscape:label="cotovelo-cut"
       d="m 32.795026,263.84542 v 0"
       inkscape:connector-curvature="0" />
    <path
       id="path1325"
       style="display:inline;fill:none;stroke:#04cc74;stroke-width:1.19545758;stroke-linecap:butt;stroke-linejoin:miter;stroke-miterlimit:4;stroke-dasharray:none;stroke-opacity:0.99124989"
       inkscape:label="mao"
       d="m 34.03091,259.93488 7.018253,2.0958"
       inkscape:connector-curvature="0" />
    <path
       id="path1572"
       style="display:inline;fill:none;stroke:#04cc74;stroke-width:1.19545758;stroke-linecap:butt;stroke-linejoin:miter;stroke-miterlimit:4;stroke-dasharray:none;stroke-opacity:0.99124989"
       inkscape:label="braco main"
       d="m 30.039811,263.02265 2.755212,0.82277 0.98808,-3.30876 c 0.586771,-1.96492 2.655304,-3.08215 4.620231,-2.49541 l 0.02783,0.008 c 1.964908,0.58674 3.082129,2.65525 2.495378,4.62016 l -0.985692,3.30085"
       inkscape:connector-curvature="0" />
  </g>
  <g
     inkscape:groupmode="layer"
     id="g952"
     inkscape:label="perna_esq"
     style="display:inline"
     transform="translate(0,-237)">
    <path
       style="display:inline;fill:none;stroke:#04cc74;stroke-width:1.19545758;stroke-linecap:butt;stroke-linejoin:miter;stroke-miterlimit:4;stroke-dasharray:none;stroke-opacity:0.99124989"
       d="m 45.095268,267.79555 -1.866913,4.70887"
       id="path940"
       inkscape:connector-curvature="0" />
    <path
       id="path942"
       style="display:inline;fill:none;stroke:#04cc74;stroke-width:1.19545758;stroke-linecap:butt;stroke-linejoin:miter;stroke-miterlimit:4;stroke-dasharray:none;stroke-opacity:0.99124989"
       inkscape:label="3"
       d="m 50.567131,267.35286 -3.665897,9.24638"
       inkscape:connector-curvature="0" />
    <path
       id="path946"
       style="display:inline;fill:none;stroke:#04cc74;stroke-width:1.19545758;stroke-miterlimit:4;stroke-dasharray:none;stroke-opacity:0.99124989"
       inkscape:label="joelho"
       d="m 41.042768,266.2192 a 4.0071803,4.0071803 0 0 1 -1.399503,2.56497 4.0071803,4.0071803 0 0 1 -5.1198,0.0264"
       inkscape:connector-curvature="0" />
    <path
       style="display:inline;fill:none;stroke:#04cc74;stroke-width:1.19545758;stroke-linecap:butt;stroke-linejoin:miter;stroke-miterlimit:4;stroke-dasharray:none;stroke-opacity:0.99124989"
       d="m 33.911176,270.19041 0.332862,-0.83986 c 1.107931,-2.79547 4.272765,-4.163 7.068109,-3.05472 l 5.336212,2.11564 c 0.789805,-1.37448 2.326002,-1.69009 3.918776,-1.0586 l 1.783217,0.70699 -3.666149,9.24655 -2.269579,-0.89982"
       id="path948"
       inkscape:connector-curvature="0" />
    <path
       style="display:inline;fill:none;stroke:#04cc74;stroke-width:1.19545758;stroke-linecap:butt;stroke-linejoin:miter;stroke-miterlimit:4;stroke-dasharray:none;stroke-opacity:0.99124989"
       d="m 38.546651,269.43855 1.118161,2.58724"
       id="path944-8"
       inkscape:connector-curvature="0" />
    <path
       id="path946-7"
       style="display:inline;fill:none;stroke:#04cc74;stroke-width:1.19545758;stroke-miterlimit:4;stroke-dasharray:none;stroke-opacity:0.99124989"
       inkscape:label="joelho"
       d="m 41.042768,266.2192 a 4.0071803,4.0071803 0 0 1 -1.399503,2.56497 4.0071803,4.0071803 0 0 1 -5.1198,0.0264"
       inkscape:connector-curvature="0" />
  </g>
  <g
     inkscape:groupmode="layer"
     id="layer5"
     inkscape:label="perna_dir"
     style="display:inline"
     transform="translate(0,-237)">
    <path
       inkscape:connector-curvature="0"
       d="m 47.455348,278.33306 -6.615264,3.57288"
       inkscape:label="bota"
       style="display:inline;opacity:1;fill:none;stroke:#04cc74;stroke-width:1.19545758;stroke-linecap:butt;stroke-linejoin:miter;stroke-miterlimit:4;stroke-dasharray:none;stroke-opacity:0.99124989"
       id="path514" />
    <path
       inkscape:connector-curvature="0"
       d="m 51.931594,281.51119 -8.7517,4.72674"
       inkscape:label="3"
       style="display:inline;opacity:1;fill:none;stroke:#04cc74;stroke-width:1.19545758;stroke-linecap:butt;stroke-linejoin:miter;stroke-miterlimit:4;stroke-dasharray:none;stroke-opacity:0.99124989"
       id="path433" />
    <path
       inkscape:connector-curvature="0"
       d="M 41.382716,275.38231 39.93497,280.2304"
       inkscape:label="joelhotras"
       style="display:inline;opacity:1;fill:none;stroke:#04cc74;stroke-width:1.19545758;stroke-linecap:butt;stroke-linejoin:miter;stroke-miterlimit:4;stroke-dasharray:none;stroke-opacity:0.99124989"
       id="path1066-7-4-9-7" />
    <path
       inkscape:connector-curvature="0"
       d="m 45.364214,274.52062 a 4.0071802,4.0071802 0 0 1 -2.720815,1.06529 4.0071802,4.0071802 0 0 1 -3.938933,-3.27075"
       inkscape:label="joelho"
       style="display:inline;opacity:1;fill:none;stroke:#04cc74;stroke-width:1.19545758;stroke-miterlimit:4;stroke-dasharray:none;stroke-opacity:0.99124989"
       id="path755" />
    <path
       inkscape:connector-curvature="0"
       inkscape:label="corpo preenchido"
       sodipodi:nodetypes="ccsscccccc"
       d="m 30.492415,276.68182 5.360957,-2.89546 2.289919,-1.23713 c 2.645621,-1.42929 5.949049,-0.44256 7.378026,2.20324 l 2.727868,5.05073 c 1.488518,-0.54523 2.868182,0.20044 3.682409,1.708 l 0.911576,1.68782 -8.751999,4.72671 -4.156201,-7.69533 -5.826481,3.14668"
       style="display:inline;opacity:1;fill:none;stroke:#04cc74;stroke-width:1.19545758;stroke-linecap:butt;stroke-linejoin:miter;stroke-miterlimit:4;stroke-dasharray:none;stroke-opacity:0.99124989"
       id="path389-0-3-0" />
  </g>
  <g
     inkscape:groupmode="layer"
     id="layer3"
     inkscape:label="corpo"
     style="display:inline;opacity:1"
     transform="translate(0,-237)">
    <path
       id="path389-0"
       style="display:inline;fill:none;stroke:#04cc74;stroke-width:1.19545758;stroke-linecap:round;stroke-linejoin:miter;stroke-miterlimit:4;stroke-dasharray:none;stroke-opacity:0.99124989"
       inkscape:label="entorno"
       d="m 28.344676,259.88378 7.508696,13.90257"
       inkscape:connector-curvature="0" />
    <path
       id="path1455"
       style="display:inline;fill:none;stroke:#04cc74;stroke-width:1.19545758;stroke-linecap:round;stroke-linejoin:miter;stroke-miterlimit:4;stroke-dasharray:none;stroke-opacity:0.99124989"
       inkscape:label="entorno"
       d="m 13.977073,270.77535 -4.235997,-7.84306 -1.6490803,-3.05333 c -1.0005776,-1.8526 -0.3098826,-4.16555 1.5427109,-5.16612 l 4.9142884,-2.65418"
       inkscape:connector-curvature="0" />
    <path
       id="path1451"
       style="display:inline;fill:none;stroke:#04cc74;stroke-width:1.19545758;stroke-linecap:round;stroke-linejoin:miter;stroke-miterlimit:4;stroke-dasharray:none;stroke-opacity:0.99124989"
       inkscape:label="entorno"
       d="m 36.345733,282.16895 -3.651896,1.9724 c -4.916041,2.65517 -11.053714,0.82235 -13.708844,-4.09371 l -0.416459,-0.77108"
       inkscape:connector-curvature="0" />
    <path
       id="path140"
       style="display:inline;fill:none;stroke:#04cc74;stroke-width:1.19545758;stroke-linecap:butt;stroke-linejoin:miter;stroke-miterlimit:4;stroke-dasharray:none;stroke-opacity:0.99124989"
       d="m 39.93497,280.2304 v 0"
       inkscape:connector-curvature="0" />
    <path
       id="path535"
       style="display:inline;fill:none;stroke:#04cc74;stroke-width:1.19545758;stroke-linecap:round;stroke-linejoin:miter;stroke-miterlimit:4;stroke-dasharray:none;stroke-opacity:0.99124989"
       inkscape:label="peito"
       d="m 25.683149,262.42689 7.04628,13.04638"
       inkscape:connector-curvature="0" />
    <path
       id="path1476"
       style="display:inline;fill:none;stroke:#04cc74;stroke-width:1.19545758;stroke-linecap:round;stroke-linejoin:miter;stroke-miterlimit:4;stroke-dasharray:none;stroke-opacity:0.99124989"
       d="m 9.6425807,254.70858 3.4608253,6.40777 2.420065,4.48083"
       inkscape:connector-curvature="0" />
    <path
       id="path1066-7-1-6-0"
       style="display:inline;fill:none;stroke:#04cc74;stroke-width:1.19545758;stroke-linecap:butt;stroke-linejoin:miter;stroke-miterlimit:4;stroke-dasharray:none;stroke-opacity:0.99124989"
       d="M 12.559275,260.10883 9.1969449,261.9248"
       inkscape:connector-curvature="0" />
    <path
       id="path1066-7-1-6-6"
       style="display:inline;fill:none;stroke:#04cc74;stroke-width:1.19545758;stroke-linecap:butt;stroke-linejoin:miter;stroke-miterlimit:4;stroke-dasharray:none;stroke-opacity:0.99124989"
       d="m 13.647537,262.12387 -3.362319,1.8159"
       sodipodi:nodetypes="cc"
       inkscape:connector-curvature="0" />
  </g>
  <g
     inkscape:groupmode="layer"
     id="layer6"
     inkscape:label="braço dir"
     style="display:inline"
     transform="translate(0,-237)">
    <path
       id="path1068-2"
       style="display:inline;fill:none;stroke:#04cc74;stroke-width:1.19545758;stroke-linecap:round;stroke-linejoin:miter;stroke-miterlimit:4;stroke-dasharray:none;stroke-opacity:0.99124989"
       d="m 19.610749,268.97986 -2.518843,-0.75217"
       sodipodi:nodetypes="cc"
       inkscape:label="antebraco"
       inkscape:connector-curvature="0" />
    <path
       id="path1246"
       style="display:inline;fill:none;stroke:#04cc74;stroke-width:1.19545758;stroke-linecap:butt;stroke-linejoin:miter;stroke-miterlimit:4;stroke-dasharray:none;stroke-opacity:0.99124989"
       inkscape:label="cotovelo-cut"
       d="m 21.431378,272.21097 -4.062086,2.19392"
       inkscape:connector-curvature="0" />
    <path
       id="path1119"
       style="fill:none;stroke:#04cc74;stroke-width:1.19545758;stroke-miterlimit:4;stroke-dasharray:none;stroke-opacity:0.99124989"
       d="m 13.538576,272.3111 a 3.6201801,3.6201801 0 0 1 0.530075,-0.0391 3.6201801,3.6201801 0 0 1 3.620181,3.62018 v 0 a 3.6201801,3.6201801 0 0 1 -1.089939,2.58913"
       inkscape:label="cotovelo-bola"
       inkscape:connector-curvature="0" />
    <path
       id="path1223"
       style="display:inline;fill:none;stroke:#04cc74;stroke-width:1.19545758;stroke-linecap:butt;stroke-linejoin:miter;stroke-miterlimit:4;stroke-dasharray:none;stroke-opacity:0.99124989"
       inkscape:label="cotovelo-cut"
       d="m 21.431378,272.21098 v 0"
       inkscape:connector-curvature="0" />
    <path
       id="path1287"
       style="display:inline;fill:none;stroke:#04cc74;stroke-width:1.19545758;stroke-linecap:butt;stroke-linejoin:miter;stroke-miterlimit:4;stroke-dasharray:none;stroke-opacity:0.99124989"
       inkscape:label="mao"
       d="m 25.341919,273.44686 -2.095803,7.01826"
       inkscape:connector-curvature="0" />
    <path
       id="path1068"
       style="display:inline;fill:none;stroke:#04cc74;stroke-width:1.19545758;stroke-linecap:round;stroke-linejoin:miter;stroke-miterlimit:4;stroke-dasharray:none;stroke-opacity:0.99124989"
       d="m 23.361544,265.7474 -1.930166,6.46358 3.308761,0.98808 c 1.964914,0.58677 3.082142,2.6553 2.495405,4.62023 l -0.0083,0.0278 c -0.586731,1.9649 -2.655251,3.08213 -4.620152,2.49537 l -5.219693,-1.55869 c -2.941935,-0.87852 -4.619325,-3.97702 -3.736088,-6.91755 l 2.963078,-9.86483"
       sodipodi:nodetypes="cccccccsc"
       inkscape:label="braco main"
       inkscape:connector-curvature="0" />
  </g>
  <g
     inkscape:groupmode="layer"
     id="layer2"
     inkscape:label="cabeça"
     style="display:inline"
     transform="translate(0,-237)">
    <path
       id="path76"
       style="fill:none;stroke:#04cc74;stroke-width:1.19545758;stroke-linecap:round;stroke-linejoin:round;stroke-miterlimit:4;stroke-dasharray:none;stroke-opacity:0.99124989;paint-order:normal"
       d="m 19.251733,255.25669 c -0.004,-0.0281 -0.0082,-0.0563 -0.01202,-0.0844 -0.004,-0.0281 -0.0073,-0.0562 -0.01063,-0.0844 -0.0033,-0.0282 -0.0066,-0.0564 -0.0092,-0.0848 -0.0027,-0.0283 -0.0053,-0.0567 -0.0079,-0.0851 -0.0027,-0.0286 -0.0046,-0.0572 -0.0066,-0.0858 -0.002,-0.0286 -0.004,-0.0572 -0.0053,-0.0858 -0.0013,-0.0287 -0.0027,-0.0574 -0.004,-0.0862 -0.0013,-0.0287 -0.002,-0.0574 -0.0027,-0.0861 -6.64e-4,-0.0289 -0.0013,-0.0579 -0.002,-0.0868 -1.72e-4,-0.0289 -1.72e-4,-0.0579 0,-0.0868 1.27e-4,-0.029 5.25e-4,-0.0581 0.0013,-0.0872 5.24e-4,-0.0292 0.0013,-0.0583 0.0027,-0.0875 6.64e-4,-0.0292 0.002,-0.0583 0.0033,-0.0875 0.0013,-0.0292 0.0033,-0.0585 0.0046,-0.0879 0.002,-0.0293 0.004,-0.0586 0.0066,-0.0879 0.002,-0.0294 0.0046,-0.0588 0.0072,-0.0882 0.0027,-0.0294 0.006,-0.0588 0.0089,-0.0882 0.0033,-0.0294 0.0066,-0.0588 0.01029,-0.0882 0.0033,-0.0295 0.0073,-0.059 0.01136,-0.0885 0.004,-0.0295 0.008,-0.059 0.01235,-0.0886 0.0046,-0.0295 0.0092,-0.059 0.01408,-0.0885 0.0046,-0.0295 0.0098,-0.059 0.01508,-0.0885 0.0053,-0.0296 0.01076,-0.0592 0.01647,-0.0889 0.006,-0.0295 0.01169,-0.0591 0.01787,-0.0885 0.006,-0.0296 0.01262,-0.0592 0.01919,-0.0889 0.0066,-0.0295 0.01328,-0.0591 0.02026,-0.0886 0.0069,-0.0296 0.01395,-0.0592 0.02125,-0.0889 0.0074,-0.0296 0.01514,-0.059 0.02298,-0.0885 0.0078,-0.0296 0.01581,-0.059 0.02404,-0.0885 0.0082,-0.0296 0.01674,-0.059 0.02537,-0.0885 0.0086,-0.0296 0.0174,-0.059 0.02643,-0.0885 0.009,-0.0296 0.01833,-0.059 0.02783,-0.0885 0.0095,-0.0294 0.01926,-0.0589 0.02916,-0.0882 0.0098,-0.0293 0.01992,-0.0586 0.03022,-0.0879 0.01029,-0.0294 0.02085,-0.0588 0.03155,-0.0882 0.01069,-0.0292 0.02152,-0.0584 0.03261,-0.0875 0.01109,-0.0294 0.02245,-0.0586 0.03394,-0.0879 0.01149,-0.0291 0.02311,-0.0582 0.035,-0.0872 0.01196,-0.0291 0.02404,-0.0582 0.03639,-0.0872 0.01229,-0.0291 0.02477,-0.0582 0.03739,-0.0872 0.01275,-0.029 0.02564,-0.0579 0.03879,-0.0868 0.01308,-0.0289 0.02637,-0.0577 0.03985,-0.0865 0.01355,-0.0288 0.02723,-0.0574 0.04118,-0.0861 0.01388,-0.0286 0.02796,-0.0573 0.04224,-0.0858 0.01421,-0.0286 0.02862,-0.0571 0.04324,-0.0855 0.01468,-0.0285 0.02955,-0.0571 0.04463,-0.0855 0.01501,-0.0283 0.03022,-0.0566 0.04563,-0.0848 0.01541,-0.0283 0.03095,-0.0566 0.04669,-0.0848 0.01581,-0.0281 0.03188,-0.0561 0.04808,-0.0841 0.01614,-0.028 0.03254,-0.0559 0.04908,-0.0837 0.01654,-0.0279 0.03321,-0.0557 0.05008,-0.0834 0.01687,-0.0278 0.03394,-0.0554 0.05114,-0.083 0.01733,-0.0276 0.0348,-0.0552 0.05253,-0.0827 0.01767,-0.0274 0.03553,-0.0547 0.05353,-0.082 0.01787,-0.0273 0.036,-0.0545 0.05419,-0.0817 0.01833,-0.0272 0.03693,-0.0543 0.05559,-0.0813 0.01873,-0.027 0.03759,-0.0539 0.05665,-0.0807 0.01906,-0.0268 0.03826,-0.0536 0.05765,-0.0803 0.01939,-0.0266 0.03899,-0.0532 0.05871,-0.0796 0.01973,-0.0265 0.03965,-0.0529 0.05971,-0.0793 0.02006,-0.0263 0.04031,-0.0525 0.06077,-0.0786 0.02039,-0.0262 0.04104,-0.0523 0.06177,-0.0782 0.02065,-0.0258 0.04151,-0.0516 0.06243,-0.0772 0.02112,-0.0258 0.04237,-0.0516 0.06382,-0.0772 0.02132,-0.0255 0.04284,-0.0509 0.06449,-0.0762 0.02172,-0.0254 0.04357,-0.0507 0.06555,-0.0759 0.02205,-0.025 0.04423,-0.05 0.06658,-0.0748 0.02238,-0.0249 0.0449,-0.0497 0.06761,-0.0745 0.02265,-0.0247 0.04536,-0.0493 0.0683,-0.0738 0.02298,-0.0245 0.04609,-0.0489 0.06933,-0.0731 0.02318,-0.0242 0.04656,-0.0484 0.07001,-0.0724 0.02351,-0.024 0.04722,-0.0479 0.07104,-0.0717 0.02384,-0.0238 0.04788,-0.0475 0.07207,-0.071 0.02411,-0.0236 0.04835,-0.047 0.07276,-0.0704 0.02437,-0.0233 0.04881,-0.0466 0.07345,-0.0697 0.02471,-0.023 0.04954,-0.0459 0.07448,-0.0686 0.02491,-0.0229 0.04994,-0.0456 0.07516,-0.0683 0.02524,-0.0226 0.05067,-0.045 0.07619,-0.0673 0.02537,-0.0223 0.05087,-0.0445 0.07654,-0.0666 0.02583,-0.022 0.0518,-0.0438 0.0779,-0.0656 0.02597,-0.0218 0.05207,-0.0434 0.07826,-0.0649 0.02617,-0.0215 0.05247,-0.0429 0.07893,-0.0642 0.02656,-0.0212 0.0532,-0.0422 0.07997,-0.0632 0.02677,-0.021 0.05366,-0.0418 0.08065,-0.0624 0.0269,-0.0207 0.05386,-0.0413 0.08099,-0.0618 0.02723,-0.0204 0.05459,-0.0406 0.08203,-0.0608 0.0275,-0.0201 0.05506,-0.04 0.08271,-0.0597 0.02769,-0.0198 0.05546,-0.0395 0.0834,-0.059 0.02783,-0.0195 0.05572,-0.0388 0.08374,-0.058 0.02803,-0.0193 0.05619,-0.0384 0.08443,-0.0573 0.02829,-0.0189 0.05665,-0.0377 0.08512,-0.0563 0.02849,-0.0186 0.05712,-0.037 0.0858,-0.0553 0.02876,-0.0183 0.05758,-0.0363 0.08648,-0.0543 0.02882,-0.018 0.05778,-0.0359 0.08684,-0.0535 0.008,-0.005 0.01601,-0.01 0.02404,-0.0144 l 7e-6,10e-6 c -0.55195,-0.11909 -1.115004,-0.17915 -1.679651,-0.17915 -4.398368,-1.5e-4 -7.964038,3.56537 -7.964082,7.96374 4.4e-5,4.39837 3.565714,7.96389 7.964082,7.96374 3.205652,-9e-5 6.09876,-1.9222 7.341165,-4.8773 -0.006,0.003 -0.01215,0.007 -0.0182,0.01 -0.02989,0.0161 -0.05984,0.0319 -0.08992,0.0477 l -0.0068,0.003 c -0.03002,0.0157 -0.06011,0.0313 -0.09026,0.0467 -0.03022,0.0153 -0.06057,0.0303 -0.09096,0.0453 -0.03035,0.015 -0.06077,0.0299 -0.09129,0.0446 -0.03048,0.0146 -0.06103,0.029 -0.09163,0.0432 -0.03075,0.0143 -0.0615,0.0286 -0.09232,0.0426 -0.03075,0.0139 -0.0615,0.0276 -0.09232,0.0412 -0.03095,0.0136 -0.06196,0.027 -0.09301,0.0402 -0.03095,0.0133 -0.06197,0.0265 -0.09301,0.0394 -0.03108,0.0129 -0.06216,0.0256 -0.09335,0.0381 -0.03128,0.0126 -0.06263,0.0249 -0.09404,0.0371 -0.03128,0.0121 -0.06263,0.024 -0.09404,0.0357 -0.03128,0.0118 -0.06263,0.0235 -0.09404,0.035 -0.03155,0.0114 -0.06309,0.0226 -0.09472,0.0336 -0.03155,0.011 -0.06309,0.0219 -0.09473,0.0326 -0.03168,0.0107 -0.06336,0.0213 -0.09507,0.0315 -0.03175,0.0104 -0.06356,0.0205 -0.09541,0.0306 -0.03175,0.01 -0.06356,0.0197 -0.09541,0.0292 -0.03175,0.01 -0.06356,0.0192 -0.09541,0.0285 -0.03188,0.009 -0.06382,0.0181 -0.09576,0.0268 -0.03201,0.009 -0.06402,0.0176 -0.09609,0.0261 -0.03188,0.008 -0.06383,0.0167 -0.09576,0.0247 -0.03201,0.008 -0.06402,0.016 -0.09609,0.0237 -0.03214,0.008 -0.06429,0.0151 -0.09644,0.0223 -0.03201,0.007 -0.06402,0.0146 -0.0961,0.0216 -0.03214,0.007 -0.06429,0.0135 -0.09645,0.0199 -0.03201,0.007 -0.06409,0.013 -0.09609,0.0192 -0.03214,0.006 -0.06429,0.0121 -0.09644,0.0179 -0.03201,0.006 -0.06409,0.0112 -0.09609,0.0165 -0.03214,0.005 -0.06429,0.0107 -0.09645,0.0158 -0.03214,0.005 -0.06429,0.01 -0.09644,0.0141 -0.03201,0.005 -0.06409,0.009 -0.09609,0.0134 -0.03208,0.004 -0.06409,0.008 -0.0961,0.0117 -0.03208,0.004 -0.06409,0.008 -0.09609,0.011 -0.03195,0.003 -0.06382,0.007 -0.09575,0.01 -0.03195,0.003 -0.06389,0.006 -0.09576,0.009 -0.03195,0.003 -0.06389,0.005 -0.09576,0.007 -0.03181,0.002 -0.06362,0.004 -0.09541,0.006 -0.03181,0.002 -0.06363,0.003 -0.09541,0.005 -0.03175,10e-4 -0.06343,0.003 -0.09507,0.004 -0.03175,0.001 -0.06342,0.002 -0.09507,0.003 -0.03148,6.7e-4 -0.06296,10e-4 -0.09438,10e-4 -0.03161,3.5e-4 -0.06323,3.5e-4 -0.09473,3.5e-4 -0.03141,-1.7e-4 -0.06276,-6.6e-4 -0.09404,-0.001 -0.03128,-5.3e-4 -0.0625,-10e-4 -0.0937,-0.002 -0.03128,-6.6e-4 -0.0625,-0.002 -0.09369,-0.003 -0.03115,-10e-4 -0.0623,-0.003 -0.09335,-0.005 -0.03108,-0.002 -0.0621,-0.004 -0.09301,-0.006 -0.03095,-0.002 -0.06183,-0.005 -0.09266,-0.007 -0.03075,-0.003 -0.06137,-0.005 -0.09198,-0.008 -0.03075,-0.003 -0.06137,-0.006 -0.09198,-0.01 -0.03048,-0.003 -0.0609,-0.007 -0.09129,-0.0106 -0.03049,-0.004 -0.0609,-0.008 -0.09129,-0.0117 -0.03028,-0.004 -0.0605,-0.008 -0.0906,-0.013 -0.03002,-0.005 -0.06004,-0.009 -0.08992,-0.0141 -0.03009,-0.005 -0.06004,-0.01 -0.08993,-0.0151 -0.02982,-0.005 -0.05957,-0.0108 -0.08923,-0.0165 -0.02962,-0.006 -0.05911,-0.0117 -0.08855,-0.0179 -0.02949,-0.006 -0.05891,-0.0121 -0.08821,-0.0185 -0.02935,-0.007 -0.05864,-0.0131 -0.08786,-0.0199 -0.02902,-0.007 -0.05798,-0.014 -0.08683,-0.0213 -0.02902,-0.007 -0.05798,-0.0147 -0.08683,-0.0223 -0.02869,-0.008 -0.05732,-0.0154 -0.08581,-0.0233 -0.02856,-0.008 -0.05705,-0.0163 -0.08545,-0.0247 -0.02836,-0.008 -0.05658,-0.0169 -0.08477,-0.0258 -0.02823,-0.009 -0.05639,-0.0177 -0.08443,-0.0268 -0.02789,-0.009 -0.05572,-0.0183 -0.0834,-0.0278 -0.02783,-0.01 -0.05546,-0.0193 -0.08305,-0.0292 -0.02743,-0.01 -0.05479,-0.0199 -0.08203,-0.0302 -0.02736,-0.0104 -0.05459,-0.0209 -0.08168,-0.0316 -0.02703,-0.0106 -0.05386,-0.0213 -0.08065,-0.0323 -0.0269,-0.011 -0.05366,-0.0223 -0.08031,-0.0336 -0.02657,-0.0114 -0.053,-0.0229 -0.07929,-0.0347 -0.02643,-0.0117 -0.05273,-0.0237 -0.07893,-0.0357 -0.0261,-0.0121 -0.05207,-0.0245 -0.07791,-0.0371 -0.02584,-0.0124 -0.0516,-0.025 -0.07722,-0.0377 -0.0255,-0.0129 -0.05094,-0.0259 -0.07619,-0.0391 -0.0253,-0.0131 -0.05047,-0.0264 -0.07551,-0.0399 -0.0251,-0.0135 -0.05001,-0.0273 -0.07482,-0.0412 -0.02484,-0.0139 -0.04954,-0.028 -0.07414,-0.0422 -0.02451,-0.0142 -0.04888,-0.0286 -0.0731,-0.0432 -0.02431,-0.0146 -0.04842,-0.0293 -0.07242,-0.0443 -0.02391,-0.0149 -0.04775,-0.03 -0.07139,-0.0453 -0.02358,-0.0153 -0.04702,-0.0307 -0.07036,-0.0464"
       sodipodi:nodetypes="csccccccccccccccccccccscscccccccccsssscccccccsccccccccccccccccsccccccccccccccccccccccccccccccccccccccccccccccccccccccsscccccscccccccccccccccccccccccccccccccccccccccscccscscccscccccccccccc"
       inkscape:connector-curvature="0" />
    <path
       id="path958"
       style="fill:none;stroke:#04cc74;stroke-width:1.19545758;stroke-linecap:round;stroke-linejoin:round;stroke-miterlimit:4;stroke-dasharray:none;stroke-opacity:0.99124989;paint-order:normal"
       d="m 23.339667,247.79232 c -0.008,0.005 -0.01601,0.01 -0.02404,0.0144 -0.02902,0.0177 -0.05798,0.0355 -0.08683,0.0535 -0.02889,0.0179 -0.05778,0.036 -0.08648,0.0542 -0.02869,0.0183 -0.05731,0.0367 -0.0858,0.0553 -0.02849,0.0186 -0.05685,0.0374 -0.08512,0.0563 -0.02823,0.0189 -0.05639,0.0381 -0.08443,0.0573 -0.02803,0.0192 -0.05592,0.0385 -0.08374,0.058 -0.02789,0.0195 -0.05572,0.0392 -0.0834,0.059 -0.0277,0.0198 -0.05526,0.0397 -0.08271,0.0597 -0.02743,0.0201 -0.05479,0.0404 -0.08203,0.0608 -0.0271,0.0205 -0.05413,0.041 -0.08099,0.0618 -0.02703,0.0207 -0.05386,0.0415 -0.08065,0.0625 -0.02676,0.0209 -0.0534,0.042 -0.07997,0.0632 -0.02643,0.0212 -0.05273,0.0426 -0.07894,0.0641 -0.02623,0.0215 -0.05227,0.0431 -0.07825,0.0649 -0.0261,0.0217 -0.05207,0.0436 -0.0779,0.0656 -0.02564,0.022 -0.05114,0.0442 -0.07654,0.0666 -0.0255,0.0223 -0.05094,0.0447 -0.07619,0.0673 -0.02517,0.0226 -0.05028,0.0454 -0.07516,0.0683 -0.02497,0.0228 -0.04981,0.0456 -0.07448,0.0686 -0.02464,0.0231 -0.04908,0.0463 -0.07345,0.0697 -0.02437,0.0233 -0.04868,0.0468 -0.07276,0.0704 -0.02417,0.0236 -0.04822,0.0472 -0.07207,0.071 -0.02384,0.0238 -0.04749,0.0477 -0.07105,0.0717 -0.02351,0.024 -0.04682,0.0481 -0.07001,0.0724 -0.02325,0.0242 -0.04636,0.0486 -0.06933,0.0731 -0.02291,0.0245 -0.04569,0.0491 -0.0683,0.0738 -0.02271,0.0247 -0.04523,0.0496 -0.06761,0.0745 -0.02238,0.0248 -0.04456,0.0497 -0.06658,0.0748 -0.02198,0.0252 -0.04383,0.0505 -0.06555,0.0758 -0.02165,0.0253 -0.04317,0.0507 -0.06449,0.0762 -0.02145,0.0256 -0.0427,0.0514 -0.06382,0.0772 -0.02099,0.0256 -0.04184,0.0514 -0.06243,0.0772 -0.02079,0.026 -0.04138,0.0521 -0.06176,0.0782 -0.02039,0.0261 -0.04065,0.0523 -0.06077,0.0786 -0.02006,0.0264 -0.03998,0.0528 -0.05971,0.0793 -0.01973,0.0264 -0.03932,0.053 -0.05871,0.0796 -0.01939,0.0267 -0.03859,0.0535 -0.05765,0.0803 -0.01906,0.0268 -0.03792,0.0537 -0.05665,0.0807 -0.01873,0.027 -0.03726,0.0541 -0.05559,0.0813 -0.01826,0.0272 -0.03633,0.0544 -0.05419,0.0817 -0.018,0.0273 -0.03586,0.0546 -0.05353,0.082 -0.01767,0.0275 -0.0352,0.055 -0.05253,0.0827 -0.0172,0.0276 -0.03427,0.0553 -0.05114,0.0831 -0.01687,0.0278 -0.03361,0.0555 -0.05008,0.0834 -0.01654,0.0278 -0.03288,0.0558 -0.04908,0.0838 -0.0162,0.028 -0.03221,0.056 -0.04808,0.0841 -0.01574,0.0282 -0.03128,0.0565 -0.04669,0.0848 -0.01541,0.0282 -0.03062,0.0565 -0.04563,0.0848 -0.01508,0.0284 -0.02995,0.0569 -0.04463,0.0855 -0.01461,0.0284 -0.02902,0.0569 -0.04324,0.0855 -0.01428,0.0286 -0.02836,0.0572 -0.04224,0.0858 -0.01395,0.0287 -0.02763,0.0574 -0.04118,0.0862 -0.01348,0.0288 -0.02677,0.0576 -0.03978,0.0865 -0.01315,0.0289 -0.02603,0.0579 -0.03879,0.0868 -0.01269,0.029 -0.02517,0.0581 -0.03739,0.0872 -0.01235,0.029 -0.02444,0.0581 -0.03639,0.0872 -0.01189,0.029 -0.02351,0.0581 -0.035,0.0872 -0.01156,0.0292 -0.02285,0.0586 -0.034,0.0879 -0.01109,0.0292 -0.02192,0.0583 -0.03261,0.0875 -0.01076,0.0294 -0.02125,0.0588 -0.03155,0.0882 -0.01029,0.0293 -0.02032,0.0586 -0.03022,0.0878 -0.0099,0.0294 -0.01966,0.0588 -0.02916,0.0882 -0.0095,0.0295 -0.01873,0.059 -0.02783,0.0885 -0.009,0.0295 -0.0178,0.0591 -0.02643,0.0886 -0.0087,0.0295 -0.01713,0.059 -0.02537,0.0885 -0.0082,0.0295 -0.01621,0.059 -0.02404,0.0885 -0.0079,0.0295 -0.01554,0.059 -0.02298,0.0885 -0.0073,0.0296 -0.01441,0.0592 -0.02125,0.0889 -0.007,0.0295 -0.01368,0.059 -0.02026,0.0885 -0.0066,0.0296 -0.01302,0.0592 -0.01919,0.0889 -0.006,0.0295 -0.01209,0.059 -0.01787,0.0886 -0.006,0.0296 -0.01116,0.0592 -0.01647,0.0889 -0.0053,0.0296 -0.01029,0.059 -0.01508,0.0885 -0.0046,0.0296 -0.0096,0.059 -0.01408,0.0885 -0.0046,0.0296 -0.0084,0.059 -0.01235,0.0885 -0.004,0.0296 -0.0078,0.059 -0.01136,0.0885 -0.0033,0.0294 -0.0071,0.0588 -0.01029,0.0882 -0.0033,0.0294 -0.006,0.0588 -0.0089,0.0882 -0.0027,0.0294 -0.0053,0.0588 -0.0072,0.0882 -0.0027,0.0293 -0.0046,0.0586 -0.0066,0.0879 -0.002,0.0293 -0.0033,0.0586 -0.0046,0.0879 -0.0013,0.0292 -0.0027,0.0584 -0.0033,0.0875 -0.0013,0.0292 -0.002,0.0584 -0.0027,0.0875 -5.32e-4,0.0291 -6.64e-4,0.0582 -0.0013,0.0872 -1.79e-4,0.029 -1.79e-4,0.0579 0,0.0868 3.52e-4,0.029 6.65e-4,0.0579 0.002,0.0868 6.64e-4,0.0288 0.0013,0.0574 0.0027,0.0862 0.0013,0.0288 0.0027,0.0574 0.004,0.0861 0.0013,0.0286 0.0033,0.0572 0.0053,0.0858 0.002,0.0286 0.004,0.0572 0.0066,0.0858 0.0027,0.0284 0.0053,0.0568 0.0079,0.0851 0.0027,0.0283 0.006,0.0566 0.0093,0.0848 0.0033,0.0282 0.0068,0.0563 0.01063,0.0844 0.004,0.0282 0.0078,0.0563 0.01202,0.0844 0.004,0.028 0.0085,0.0559 0.01302,0.0837 0.0046,0.0279 0.0094,0.0557 0.01441,0.0834 0.0053,0.0276 0.01029,0.0552 0.01581,0.0827 0.0053,0.0276 0.01103,0.0552 0.0168,0.0827 0.006,0.0274 0.0182,0.082 0.0182,0.082 0,0 0.002,0.007 0.0027,0.011 1.165306,0.13547 2.044219,1.12256 2.044133,2.2957 -6e-5,0.21739 -0.03082,0.43368 -0.09129,0.64248 0.0078,0.006 0.01554,0.0114 0.02331,0.0171 0.02285,0.0162 0.04583,0.0322 0.06898,0.048 0.02305,0.0159 0.04629,0.0317 0.06968,0.0474 0.02331,0.0156 0.04676,0.0311 0.07035,0.0464 0.02364,0.0153 0.04742,0.0303 0.07139,0.0453 0.02398,0.0149 0.04815,0.0297 0.07242,0.0443 0.02424,0.0146 0.04862,0.029 0.0731,0.0432 0.02457,0.0143 0.04928,0.0283 0.07413,0.0422 0.02484,0.0139 0.04974,0.0276 0.07482,0.0412 0.02504,0.0134 0.05021,0.0267 0.07551,0.0398 0.02524,0.0132 0.05067,0.0262 0.07619,0.0391 0.02564,0.0127 0.05134,0.0254 0.07722,0.0377 0.02584,0.0126 0.0518,0.0249 0.07791,0.0371 0.02617,0.0121 0.05247,0.024 0.07894,0.0357 0.0263,0.0118 0.05273,0.0233 0.07928,0.0347 0.02663,0.0113 0.0534,0.0226 0.08031,0.0336 0.02676,0.011 0.05366,0.0217 0.08065,0.0323 0.0271,0.0107 0.05433,0.0213 0.08168,0.0316 0.02723,0.0103 0.05459,0.0203 0.08203,0.0302 0.02756,0.01 0.05526,0.0197 0.08306,0.0292 0.0277,0.009 0.05552,0.0187 0.0834,0.0278 0.02803,0.009 0.05619,0.0181 0.08443,0.0268 0.02816,0.009 0.05639,0.0173 0.08478,0.0258 0.02836,0.008 0.05685,0.0167 0.08545,0.0247 0.02849,0.008 0.05712,0.0157 0.0858,0.0233 0.02882,0.008 0.05778,0.0151 0.08683,0.0223 0.02882,0.007 0.05778,0.0143 0.08683,0.0213 0.02922,0.007 0.05851,0.0135 0.08786,0.0199 0.02935,0.007 0.05871,0.0126 0.0882,0.0185 0.02942,0.006 0.05898,0.0121 0.08855,0.0179 0.02969,0.006 0.05937,0.0112 0.08923,0.0165 0.02989,0.005 0.05984,0.0103 0.08992,0.0151 0.02989,0.005 0.05984,0.01 0.08992,0.0141 0.03015,0.005 0.0603,0.009 0.09061,0.013 0.03035,0.004 0.06077,0.008 0.09129,0.0117 0.03035,0.004 0.06077,0.007 0.09129,0.0106 0.03062,0.003 0.06123,0.007 0.09198,0.01 0.03062,0.003 0.06123,0.006 0.09198,0.008 0.03082,0.003 0.0617,0.005 0.09267,0.007 0.03095,0.002 0.06196,0.004 0.09301,0.006 0.03108,0.002 0.06216,0.003 0.09335,0.005 0.03115,10e-4 0.06243,0.003 0.0937,0.003 0.03115,6.6e-4 0.06243,0.001 0.09369,0.002 0.03128,6.6e-4 0.06263,0.001 0.09404,0.001 0.03155,8e-5 0.06309,-3e-5 0.09472,-3.5e-4 0.03141,-1.8e-4 0.06289,-6.7e-4 0.09438,-10e-4 0.03168,-5.3e-4 0.06336,-0.001 0.09507,-0.003 0.03168,-10e-4 0.06336,-0.002 0.09507,-0.004 0.03175,-0.001 0.06356,-0.003 0.09541,-0.005 0.03175,-0.002 0.06356,-0.004 0.09541,-0.006 0.03188,-0.002 0.06382,-0.005 0.09576,-0.007 0.03188,-0.003 0.06382,-0.005 0.09576,-0.009 0.03188,-0.003 0.06382,-0.006 0.09575,-0.01 0.03201,-0.003 0.06402,-0.007 0.0961,-0.011 0.03201,-0.004 0.06402,-0.008 0.09609,-0.0117 0.03201,-0.004 0.06402,-0.009 0.0961,-0.0134 0.03214,-0.005 0.06429,-0.009 0.09644,-0.0141 0.03214,-0.005 0.06429,-0.0103 0.09644,-0.0158 0.03201,-0.005 0.06409,-0.0108 0.09609,-0.0165 0.03214,-0.006 0.06429,-0.0117 0.09644,-0.0179 0.03201,-0.006 0.06409,-0.0126 0.0961,-0.0192 0.03214,-0.007 0.06429,-0.0131 0.09644,-0.0199 0.03201,-0.007 0.06409,-0.0142 0.09609,-0.0216 0.03214,-0.007 0.06429,-0.0147 0.09644,-0.0223 0.03201,-0.008 0.06409,-0.0156 0.0961,-0.0237 0.03195,-0.008 0.06382,-0.0163 0.09575,-0.0247 0.03208,-0.008 0.06409,-0.0172 0.0961,-0.0261 0.03195,-0.009 0.06382,-0.0177 0.09575,-0.0268 0.03181,-0.009 0.06363,-0.0188 0.09541,-0.0285 0.03181,-0.01 0.06362,-0.0193 0.09542,-0.0292 0.03181,-0.01 0.06363,-0.0202 0.09541,-0.0305 0.03175,-0.0104 0.06342,-0.0209 0.09506,-0.0315 0.03161,-0.0107 0.06316,-0.0215 0.09473,-0.0326 0.03161,-0.011 0.06316,-0.0222 0.09472,-0.0337 0.03141,-0.0115 0.06276,-0.0232 0.09404,-0.035 0.03141,-0.0117 0.06276,-0.0236 0.09404,-0.0357 0.03141,-0.0121 0.06276,-0.0245 0.09404,-0.0371 0.03115,-0.0126 0.0623,-0.0252 0.09335,-0.0381 0.03108,-0.013 0.0621,-0.0261 0.09301,-0.0394 0.03108,-0.0132 0.06203,-0.0266 0.09301,-0.0402 0.03082,-0.0135 0.06163,-0.0273 0.09232,-0.0412 0.03082,-0.014 0.06163,-0.0282 0.09232,-0.0426 0.03062,-0.0143 0.06117,-0.0286 0.09164,-0.0432 0.03048,-0.0147 0.0609,-0.0296 0.09129,-0.0446 0.03035,-0.0149 0.0607,-0.03 0.09095,-0.0453 0.03015,-0.0154 0.06024,-0.031 0.09026,-0.0467 l 0.0068,-0.003 c 0.03009,-0.0157 0.06004,-0.0316 0.08992,-0.0477 0.006,-0.003 0.01215,-0.007 0.0182,-0.01 0.410866,-0.97713 0.622528,-2.02645 0.622575,-3.08644 -3.4e-5,-3.75097 -2.617508,-6.99344 -6.284089,-7.78459 z m -4.006928,7.88996 c 0,0 -0.177785,-0.0155 -0.267013,-0.0155 -1.27631,1.1e-4 -2.310886,1.03484 -2.310799,2.31115 1.06e-4,1.27617 1.034622,2.31069 2.310799,2.3108 1.028818,0 1.933746,-0.68009 2.219852,-1.66833 v 10e-6"
       sodipodi:nodetypes="cccccccccccccccccccccccccccccccccsccccccccccccccccscccccccsssscccccccccscsccccccccccccccccccccscccccccccccccccccccccccscccscscccscccccccccccccccccccccccccccccccccccccccscccccssccccccccccccccccccccccccsc"
       inkscape:connector-curvature="0" />
    <path
       id="path961"
       style="fill:none;stroke:#04cc74;stroke-width:1.19545758;stroke-linecap:round;stroke-linejoin:miter;stroke-miterlimit:4;stroke-dasharray:none;stroke-opacity:0.99124989;paint-order:normal"
       d="m 27.363059,256.49841 c 0.0607,-0.30337 0.09617,-0.61125 0.106057,-0.92047 0.002,-0.0596 0.0027,-0.1192 0.0027,-0.17881 m -0.226207,-1.3532 c -0.645282,-2.12148 -2.190763,-3.29702 -4.023306,-4.00985"
       sodipodi:nodetypes="ccccc"
       inkscape:connector-curvature="0" />
  </g>
</svg>
